<?xml version="1.0" encoding="UTF-8" standalone="no"?>
<!-- Uploaded to: SVG Repo, www.svgrepo.com, Transformed by: SVG Repo Mixer Tools -->

<svg
   version="1.1"
   id="_x32_"
   width="800"
   height="800"
   viewBox="-51.2 -51.2 614.4 614.4"
   xml:space="preserve"
   fill="#000000"
   xmlns="http://www.w3.org/2000/svg"
   xmlns:svg="http://www.w3.org/2000/svg"><defs
   id="defs3" />

<g
   id="SVGRepo_bgCarrier"
   stroke-width="0"
   transform="translate(0,-1.1444092e-5)">

<rect
   x="-51.200001"
   y="-51.200001"
   width="614.40002"
   height="614.40002"
   rx="307.20001"
   fill="#2563eb"
   strokewidth="0"
   id="rect1" />

</g>



<g
   id="SVGRepo_iconCarrier"
   transform="translate(0,-5.54714)"> <style
   type="text/css"
   id="style1">  .st0{fill:#ffffff;}  </style> <g
   id="g3">   <path
   class="st0"
   d="m 456.12836,350.56613 -56.41553,-23.05907 c -9.41832,-4.33293 -15.42997,-13.75125 -15.42997,-24.07977 v -8.31927 c 0,-3.92404 0.62788,-7.83303 1.93088,-11.55314 0,0 35.47619,-47.34279 35.47619,-91.01268 0,-54.564 -34.89452,-89.64638 -77.95258,-89.64638 -43.04201,0 -77.9526,35.08338 -77.9526,89.64638 0,43.66989 35.50734,91.01268 35.50734,91.01268 1.27185,3.72011 1.93088,7.6291 1.93088,11.55314 v 8.31927 c 0,10.32852 -6.05887,19.74684 -15.46212,24.07977 l -56.41553,23.05907 c -13.1073,6.01166 -22.44726,18.06712 -25.0211,32.25739 l -2.90436,37.37494 h 140.31749 140.31747 l -2.87221,-37.37494 c -2.60699,-14.18927 -11.94696,-26.24472 -25.05425,-32.25739 z"
   id="path3"
   style="stroke-width:1.00462" /> <g
   style="fill:#ffffff;fill-opacity:1;stroke:#ffffff;stroke-width:1.75814;stroke-dasharray:none;stroke-opacity:1"
   id="g4"
   transform="matrix(17.473016,0,0,17.473016,-89.661231,50.835687)"><path
     d="M 6,12 H 18 M 12,6 v 12"
     stroke="#000000"
     stroke-width="2"
     stroke-linecap="round"
     stroke-linejoin="round"
     id="path1"
     style="fill:#ffffff;fill-opacity:1;stroke:#ffffff;stroke-width:1.75814;stroke-dasharray:none;stroke-opacity:1" /></g></g> </g>

</svg>
