<?xml version="1.0" encoding="UTF-8" standalone="no"?>
<!-- Uploaded to: SVG Repo, www.svgrepo.com, Transformed by: SVG Repo Mixer Tools -->

<svg
   version="1.1"
   id="_x32_"
   width="800"
   height="800"
   viewBox="-76.8 -76.8 665.6 665.6"
   xml:space="preserve"
   fill="#000000"
   xmlns="http://www.w3.org/2000/svg"
   xmlns:svg="http://www.w3.org/2000/svg"><defs
   id="defs3" />

<g
   id="SVGRepo_bgCarrier"
   stroke-width="0"
   transform="translate(1.5258789e-5)">

<rect
   x="-76.800003"
   y="-76.800003"
   width="665.59998"
   height="665.59998"
   rx="332.79999"
   fill="#2563eb"
   strokewidth="0"
   id="rect1" />

</g>



<g
   id="SVGRepo_iconCarrier"
   transform="matrix(0.88935049,0,0,0.85816625,28.326618,-79.054428)"
   style="fill:#ffffff"> <style
   type="text/css"
   id="style1">  .st0{fill:#ffffff;}  </style> <g
   id="g3"
   style="fill:#ffffff"> <path
   class="st0"
   d="m 147.57,320.188 c -0.078,-0.797 -0.328,-1.531 -0.328,-2.328 v -6.828 c 0,-3.25 0.531,-6.453 1.594,-9.5 0,0 17.016,-22.781 25.063,-49.547 -8.813,-18.594 -16.813,-41.734 -16.813,-64.672 0,-5.328 0.391,-10.484 0.938,-15.563 -11.484,-12.031 -27,-18.844 -44.141,-18.844 -35.391,0 -64.109,28.875 -64.109,73.75 0,35.906 29.219,74.875 29.219,74.875 1.031,3.047 1.563,6.25 1.563,9.5 v 6.828 c 0,8.516 -4.969,16.266 -12.719,19.813 L 21.446,356.625 C 10.664,361.594 2.992,371.5 0.852,383.156 l -0.797,10.203 c -0.406,5.313 1.406,10.547 5.031,14.438 3.609,3.922 8.688,6.125 14.016,6.125 H 94.93 l 3.109,-39.953 0.203,-1.078 c 3.797,-20.953 17.641,-38.766 36.984,-47.672 z"
   id="path1"
   style="fill:#ffffff" /> <path
   class="st0"
   d="M 511.148,383.156 C 509.023,371.5 501.351,361.593 490.57,356.625 l -46.422,-18.953 c -7.75,-3.547 -12.688,-11.297 -12.688,-19.813 v -6.828 c 0,-3.25 0.516,-6.453 1.578,-9.5 0,0 29.203,-38.969 29.203,-74.875 0,-44.875 -28.703,-73.75 -64.156,-73.75 -17.109,0 -32.625,6.813 -44.141,18.875 0.563,5.063 0.953,10.203 0.953,15.531 0,22.922 -7.984,46.063 -16.781,64.656 8.031,26.766 25.078,49.563 25.078,49.563 1.031,3.047 1.578,6.25 1.578,9.5 v 6.828 c 0,0.797 -0.266,1.531 -0.344,2.328 l 11.5,4.688 c 20.156,9.219 34,27.031 37.844,47.984 l 0.188,1.094 3.094,39.969 h 75.859 c 5.328,0 10.406,-2.203 14,-6.125 3.625,-3.891 5.438,-9.125 5.031,-14.438 z"
   id="path2"
   style="fill:#ffffff" /> <path
   class="st0"
   d="m 367.867,344.609 -56.156,-22.953 c -9.375,-4.313 -15.359,-13.688 -15.359,-23.969 v -8.281 c 0,-3.906 0.625,-7.797 1.922,-11.5 0,0 35.313,-47.125 35.313,-90.594 0,-54.313 -34.734,-89.234 -77.594,-89.234 -42.844,0 -77.594,34.922 -77.594,89.234 0,43.469 35.344,90.594 35.344,90.594 1.266,3.703 1.922,7.594 1.922,11.5 v 8.281 c 0,10.281 -6.031,19.656 -15.391,23.969 l -56.156,22.953 c -13.047,5.984 -22.344,17.984 -24.906,32.109 l -2.891,37.203 h 139.672 139.672 l -2.859,-37.203 c -2.595,-14.124 -11.892,-26.124 -24.939,-32.109 z"
   id="path3"
   style="fill:#ffffff" /> </g> </g>

<path
   id="rect3-9"
   style="fill:#ffffff;fill-opacity:1;stroke:#000000;stroke-width:0;stroke-dasharray:none;stroke-opacity:1"
   d="m 246.92493,320.25908 c -3.10216,0 -5.60007,2.26189 -5.60007,5.07211 v 83.0425 l -91.6673,-0.27617 c -3.10215,-0.01 -5.60857,2.24583 -5.61887,5.05604 l -0.0595,16.44204 c -0.0103,2.81022 2.47807,5.07981 5.58023,5.08914 l 91.76545,0.27616 v 83.13044 c 0,2.81024 2.4979,5.07211 5.60008,5.07211 h 18.15012 c 3.10218,0 5.60007,-2.26187 5.60007,-5.07211 v -83.04249 l 91.6673,0.27617 c 3.10215,0.01 5.60857,-2.24581 5.61888,-5.05603 l 0.0595,-16.44205 c 0.0103,-2.81021 -2.47808,-5.0798 -5.58022,-5.08914 l -91.76546,-0.27617 v -83.13044 c 0,-2.81022 -2.4979,-5.07211 -5.60008,-5.07211 z" /></svg>
