<?xml version="1.0" encoding="UTF-8" standalone="no"?>
<!-- Uploaded to: SVG Repo, www.svgrepo.com, Transformed by: SVG Repo Mixer Tools -->

<svg
   width="923.62714"
   height="699.81677"
   viewBox="-102.4 -102.4 1418.6913 1074.9186"
   fill="#ff0000"
   class="icon"
   version="1.1"
   stroke="#ff0000"
   stroke-width="15.36"
   id="svg3"
   xml:space="preserve"
   xmlns="http://www.w3.org/2000/svg"
   xmlns:svg="http://www.w3.org/2000/svg"><defs
     id="defs3" /><rect
     style="fill:#ffffff;stroke-width:0;stroke-dasharray:none"
     id="rect4-8"
     width="1418.6913"
     height="1074.9186"
     x="-102.39999"
     y="-102.4"
     rx="133.32036" /><rect
     style="fill:#4d4d4d;stroke-width:0;stroke-dasharray:none"
     id="rect4"
     width="1327.6691"
     height="1005.9525"
     x="-56.888878"
     y="-67.916969"
     rx="124.76662" /><path
     style="font-size:244.491px;font-family:Calibri;-inkscape-font-specification:Calibri;fill:#ffffff;stroke-width:0"
     d="m 496.22038,691.35467 q 0,2.26822 -0.23876,3.93955 -0.23877,1.67132 -0.83567,2.74575 -0.5969,0.95504 -1.43256,1.43256 -0.71628,0.47752 -1.55195,0.47752 h -56.58629 v 52.52737 h 53.4824 q 0.83567,0 1.55195,0.47752 0.83566,0.35814 1.43256,1.31318 0.5969,0.95504 0.83567,2.62637 0.23876,1.55194 0.23876,4.05893 0,2.26823 -0.23876,3.93955 -0.23877,1.55195 -0.83567,2.62637 -0.5969,0.95505 -1.43256,1.55195 -0.71628,0.47752 -1.55195,0.47752 h -53.4824 v 64.34602 q 0,0.83566 -0.47752,1.67132 -0.47752,0.71629 -1.67133,1.19381 -1.1938,0.35814 -3.10389,0.5969 -1.91008,0.35814 -5.01397,0.35814 -2.86513,0 -4.8946,-0.35814 -2.02947,-0.23876 -3.22327,-0.5969 -1.1938,-0.47752 -1.67132,-1.19381 -0.47753,-0.83566 -0.47753,-1.67132 V 690.87715 q 0,-4.65584 2.38761,-6.44654 2.50699,-1.91009 5.25274,-1.91009 h 69.47937 q 0.83567,0 1.55195,0.47752 0.83566,0.47752 1.43256,1.55195 0.5969,1.07442 0.83567,2.86512 0.23876,1.67133 0.23876,3.93956 z m 125.46876,87.74457 q 0,13.13184 -3.46203,24.23421 -3.46203,10.983 -10.38609,18.98148 -6.80468,7.99849 -17.19077,12.53494 -10.26671,4.41708 -23.87608,4.41708 -13.25122,0 -23.15979,-3.93956 -9.78919,-3.93955 -16.35511,-11.46051 -6.56592,-7.52097 -9.78919,-18.2652 -3.22327,-10.74423 -3.22327,-24.35359 0,-13.13185 3.34265,-24.11484 3.46203,-11.10237 10.26671,-19.10086 6.92407,-7.99848 17.19078,-12.41556 10.26671,-4.41707 23.99545,-4.41707 13.25122,0 23.04041,3.93955 9.90857,3.93955 16.47449,11.46052 6.56592,7.52096 9.78919,18.26519 3.34265,10.74424 3.34265,24.23422 z m -20.77218,1.31318 q 0,-8.71476 -1.67132,-16.47449 -1.55195,-7.75972 -5.25274,-13.60936 -3.70079,-5.84964 -10.02795,-9.19229 -6.32716,-3.46203 -15.75821,-3.46203 -8.71477,0 -15.04193,3.10389 -6.20778,3.10389 -10.26671,8.83415 -4.05893,5.61087 -6.0884,13.3706 -1.91008,7.75972 -1.91008,16.95201 0,8.83415 1.55194,16.59387 1.67133,7.75973 5.37212,13.60937 3.82017,5.73025 10.14733,9.19228 6.32716,3.34265 15.75821,3.34265 8.59538,0 14.92254,-3.10389 6.32716,-3.10389 10.3861,-8.71476 4.05893,-5.61088 5.96901,-13.3706 1.91009,-7.75973 1.91009,-17.0714 z m 141.82388,53.60179 q 0,0.95504 -0.47752,1.67132 -0.35814,0.59691 -1.43256,1.07443 -1.07443,0.47752 -2.86513,0.71628 -1.67133,0.23876 -4.17832,0.23876 -2.74574,0 -4.53645,-0.23876 -1.67133,-0.23876 -2.74575,-0.71628 -0.95504,-0.47752 -1.31318,-1.07443 -0.35814,-0.71628 -0.35814,-1.67132 v -14.20626 q -9.19229,10.14733 -18.14582,14.80316 -8.95353,4.65584 -18.14582,4.65584 -10.74423,0 -18.14581,-3.58142 -7.2822,-3.58141 -11.81866,-9.66981 -4.53645,-6.20777 -6.56592,-14.32564 -1.91009,-8.23725 -1.91009,-19.93652 v -65.18168 q 0,-0.95505 0.35815,-1.55195 0.47752,-0.71628 1.67132,-1.1938 1.1938,-0.5969 3.10389,-0.71628 1.91009,-0.23877 4.77522,-0.23877 2.86512,0 4.77521,0.23877 1.91009,0.11938 2.98451,0.71628 1.1938,0.47752 1.67132,1.1938 0.47753,0.5969 0.47753,1.55195 v 62.55531 q 0,9.43105 1.31318,15.16131 1.43256,5.61087 4.17831,9.66981 2.86513,3.93955 7.16283,6.20778 4.29769,2.14884 10.02795,2.14884 7.40158,0 14.68378,-5.25273 7.40158,-5.25274 15.63883,-15.40007 v -75.09025 q 0,-0.95505 0.35814,-1.55195 0.47752,-0.71628 1.67133,-1.1938 1.1938,-0.5969 2.98451,-0.71628 1.91008,-0.23877 4.89459,-0.23877 2.86513,0 4.77522,0.23877 1.91008,0.11938 2.98451,0.71628 1.07442,0.47752 1.55194,1.1938 0.5969,0.5969 0.5969,1.55195 z m 56.10878,0 q 0,0.95504 -0.47753,1.67132 -0.47752,0.59691 -1.55194,1.07443 -1.07442,0.47752 -2.98451,0.71628 -1.91009,0.23876 -4.8946,0.23876 -2.86512,0 -4.77521,-0.23876 -1.91009,-0.23876 -3.10389,-0.71628 -1.07442,-0.47752 -1.55194,-1.07443 -0.35815,-0.71628 -0.35815,-1.67132 V 674.52203 q 0,-0.95504 0.35815,-1.67132 0.47752,-0.71628 1.55194,-1.1938 1.1938,-0.47753 3.10389,-0.71629 1.91009,-0.23876 4.77521,-0.23876 2.98451,0 4.8946,0.23876 1.91009,0.23876 2.98451,0.71629 1.07442,0.47752 1.55194,1.1938 0.47753,0.71628 0.47753,1.67132 z"
     id="text5"
     aria-label="Foul" /><g
     style="fill:none;stroke:#ff8e00;stroke-opacity:1"
     id="g5"
     transform="matrix(26.561229,0,0,26.561229,288.21053,24.290698)"><path
       d="m 12,15 h 0.01 M 12,12 V 9 M 4.98207,19 H 19.0179 c 1.5436,0 2.5054,-1.6744 1.7276,-3.0077 L 13.7276,3.96153 c -0.7718,-1.32301 -2.6834,-1.32301 -3.4552,0 L 3.25452,15.9923 C 2.47675,17.3256 3.43849,19 4.98207,19 Z"
       stroke="#000000"
       stroke-width="2"
       stroke-linecap="round"
       stroke-linejoin="round"
       id="path1-8"
       style="fill:none;stroke:#ff8e00;stroke-opacity:1" /></g></svg>
