<?xml version="1.0" encoding="UTF-8" standalone="no"?>
<!-- Uploaded to: SVG Repo, www.svgrepo.com, Transformed by: SVG Repo Mixer Tools -->

<svg
   width="923.62714"
   height="699.81677"
   viewBox="-102.4 -102.4 1418.6913 1074.9186"
   fill="#ff0000"
   class="icon"
   version="1.1"
   stroke="#ff0000"
   stroke-width="15.36"
   id="svg3"
   xml:space="preserve"
   xmlns="http://www.w3.org/2000/svg"
   xmlns:svg="http://www.w3.org/2000/svg"><defs
     id="defs3" /><rect
     style="fill:#ffffff;stroke-width:0;stroke-dasharray:none"
     id="rect4-8"
     width="1418.6913"
     height="1074.9186"
     x="-102.39999"
     y="-102.4"
     rx="133.32036" /><path
     id="rect4"
     style="fill:#4d4d4d;stroke-width:0"
     d="M 67.877739,-67.916969 H 1146.0136 c 69.1207,0 124.7666,55.645911 124.7666,124.766617 V 813.26893 c 0,69.1207 -55.6459,124.76662 -124.7666,124.76662 H 67.877739 c -69.1207058,0 -124.766617,-55.64592 -124.766617,-124.76662 V 56.849648 c 0,-69.120706 55.6459112,-124.766617 124.766617,-124.766617 z" /><path
     style="font-size:244.491px;font-family:Calibri;-inkscape-font-specification:Calibri;fill:#ffffff;stroke-width:0"
     d="m 357.50037,833.65607 q 0,0.95504 -0.47752,1.7907 -0.35814,0.71629 -1.55195,1.19381 -1.1938,0.47752 -3.22327,0.71628 -2.02946,0.35814 -5.25273,0.35814 -4.17831,0 -6.80468,-0.35814 -2.62637,-0.35814 -3.93955,-1.31318 -1.31319,-0.95505 -2.14885,-2.14885 l -56.82506,-77.2391 v 77.2391 q 0,0.83566 -0.47752,1.67132 -0.47752,0.71629 -1.67132,1.19381 -1.19381,0.35814 -3.22327,0.5969 -1.91009,0.35814 -4.8946,0.35814 -2.86513,0 -4.89459,-0.35814 -2.02947,-0.23876 -3.22327,-0.5969 -1.19381,-0.47752 -1.67133,-1.19381 -0.47752,-0.83566 -0.47752,-1.67132 V 685.62441 q 0,-0.95504 0.47752,-1.67133 0.47752,-0.71628 1.67133,-1.07442 1.1938,-0.47752 3.22327,-0.71628 2.02946,-0.35814 4.89459,-0.35814 2.98451,0 4.8946,0.35814 2.02946,0.23876 3.22327,0.71628 1.1938,0.35814 1.67132,1.07442 0.47752,0.71629 0.47752,1.67133 v 68.64371 l 54.67621,-68.64371 q 0.71628,-1.07442 1.67133,-1.79071 0.95504,-0.71628 2.26822,-1.07442 1.43257,-0.47752 3.34265,-0.71628 2.02947,-0.23876 5.13336,-0.23876 3.10389,0 5.01398,0.35814 1.91008,0.23876 2.9845,0.71628 1.19381,0.47752 1.55195,1.1938 0.47752,0.71629 0.47752,1.55195 0,1.55194 -0.83566,3.10389 -0.71628,1.55194 -2.86513,4.29769 l -51.21418,61.24213 55.15373,73.29955 q 2.02947,3.10389 2.38761,4.29769 0.47752,1.07443 0.47752,1.79071 z m 43.69322,0.35814 q 0,0.95504 -0.47752,1.67132 -0.47753,0.59691 -1.55195,1.07443 -1.07442,0.47752 -2.98451,0.71628 -1.91008,0.23876 -4.89459,0.23876 -2.86513,0 -4.77522,-0.23876 -1.91008,-0.23876 -3.10389,-0.71628 -1.07442,-0.47752 -1.55194,-1.07443 -0.35814,-0.71628 -0.35814,-1.67132 V 726.57188 q 0,-0.83567 0.35814,-1.55195 0.47752,-0.71628 1.55194,-1.1938 1.19381,-0.47752 3.10389,-0.71628 1.91009,-0.23877 4.77522,-0.23877 2.98451,0 4.89459,0.23877 1.91009,0.23876 2.98451,0.71628 1.07442,0.47752 1.55195,1.1938 0.47752,0.71628 0.47752,1.55195 z m 2.26822,-143.73397 q 0,6.92407 -2.62636,9.43105 -2.62637,2.50699 -9.66981,2.50699 -6.92407,0 -9.55043,-2.38761 -2.50699,-2.50698 -2.50699,-9.31167 0,-6.92406 2.62637,-9.43104 2.62636,-2.50699 9.66981,-2.50699 6.92406,0 9.43105,2.50699 2.62636,2.3876 2.62636,9.19228 z M 514.8437,817.6591 q 0,2.02946 -0.11938,3.58141 -0.11938,1.43256 -0.47752,2.50699 -0.23877,0.95504 -0.71629,1.7907 -0.35814,0.71628 -1.91008,2.26823 -1.43257,1.43256 -5.01398,3.70079 -3.58141,2.14885 -8.11786,3.93955 -4.41708,1.67133 -9.66981,2.74575 -5.25274,1.07443 -10.86362,1.07443 -11.57989,0 -20.53342,-3.82018 -8.95353,-3.82017 -15.04193,-11.10237 -5.96902,-7.40158 -9.19229,-18.02644 -3.10389,-10.74423 -3.10389,-24.71173 0,-15.87759 3.82018,-27.21873 3.93955,-11.46051 10.62485,-18.74272 6.80468,-7.2822 15.87759,-10.74423 9.19229,-3.58141 19.81714,-3.58141 5.13336,0 9.90857,0.95504 4.8946,0.95505 8.95353,2.50699 4.05893,1.55195 7.16282,3.58141 3.22327,2.02947 4.65583,3.46203 1.43257,1.43257 1.91009,2.26823 0.5969,0.83566 0.95504,2.02947 0.35814,1.07442 0.47753,2.50698 0.11938,1.43257 0.11938,3.58141 0,4.65584 -1.07443,6.56592 -1.07442,1.79071 -2.62637,1.79071 -1.7907,0 -4.17831,-1.91009 -2.26823,-2.02946 -5.84964,-4.41707 -3.58141,-2.38761 -8.71476,-4.29769 -5.01398,-2.02947 -11.93804,-2.02947 -14.20626,0 -21.84661,10.983 -7.52096,10.86361 -7.52096,31.63579 0,10.3861 1.91008,18.2652 2.02947,7.75972 5.84964,13.01246 3.82017,5.25274 9.31167,7.8791 5.61088,2.50699 12.7737,2.50699 6.80468,0 11.93804,-2.14884 5.13335,-2.14885 8.83414,-4.65584 3.82018,-2.62637 6.32716,-4.65583 2.62637,-2.14885 4.05894,-2.14885 0.83566,0 1.43256,0.47752 0.5969,0.47752 0.95504,1.67133 0.47753,1.07442 0.59691,2.86513 0.23876,1.67132 0.23876,4.05893 z m 114.36638,16.23573 q 0,0.95504 -0.47752,1.67132 -0.47752,0.71629 -1.67132,1.19381 -1.07443,0.47752 -3.10389,0.71628 -2.02947,0.23876 -5.13336,0.23876 -3.22327,0 -5.37212,-0.23876 -2.02946,-0.11938 -3.46203,-0.47752 -1.43256,-0.47752 -2.3876,-1.19381 -0.83567,-0.83566 -1.55195,-1.91008 L 560.68575,774.4434 v 59.57081 q 0,0.95504 -0.47752,1.67132 -0.47752,0.59691 -1.55195,1.07443 -1.07442,0.47752 -2.9845,0.71628 -1.91009,0.23876 -4.8946,0.23876 -2.86513,0 -4.77521,-0.23876 -1.91009,-0.23876 -3.10389,-0.71628 -1.07443,-0.47752 -1.55195,-1.07443 -0.35814,-0.71628 -0.35814,-1.67132 V 674.52203 q 0,-0.95504 0.35814,-1.67132 0.47752,-0.71628 1.55195,-1.1938 1.1938,-0.47753 3.10389,-0.71629 1.91008,-0.23876 4.77521,-0.23876 2.98451,0 4.8946,0.23876 1.91008,0.23876 2.9845,0.71629 1.07443,0.47752 1.55195,1.1938 0.47752,0.71628 0.47752,1.67132 v 97.17563 l 40.58933,-44.64826 q 0.95504,-1.19381 2.02946,-1.91009 1.07443,-0.83566 2.50699,-1.31318 1.55195,-0.5969 3.58141,-0.71628 2.02947,-0.23877 4.8946,-0.23877 2.98451,0 5.01397,0.23877 2.02947,0.11938 3.22327,0.5969 1.31319,0.35814 1.79071,1.07442 0.5969,0.5969 0.5969,1.67133 0,1.43256 -0.83566,2.86512 -0.71628,1.43257 -2.50699,3.34266 l -38.918,38.918 43.69321,56.70567 q 1.55195,2.02947 2.14885,3.34265 0.71628,1.19381 0.71628,2.26823 z m 114.60516,-54.79559 q 0,13.13184 -3.46203,24.23421 -3.46203,10.983 -10.38609,18.98148 -6.80468,7.99849 -17.19077,12.53494 -10.26671,4.41708 -23.87608,4.41708 -13.25122,0 -23.15979,-3.93956 -9.78919,-3.93955 -16.35511,-11.46051 -6.56592,-7.52097 -9.78919,-18.2652 -3.22327,-10.74423 -3.22327,-24.35359 0,-13.13185 3.34265,-24.11484 3.46203,-11.10237 10.26671,-19.10086 6.92406,-7.99848 17.19078,-12.41556 10.26671,-4.41707 23.99545,-4.41707 13.25122,0 23.04041,3.93955 9.90857,3.93955 16.47449,11.46052 6.56592,7.52096 9.78919,18.26519 3.34265,10.74424 3.34265,24.23422 z m -20.77218,1.31318 q 0,-8.71476 -1.67133,-16.47449 -1.55194,-7.75972 -5.25273,-13.60936 -3.70079,-5.84964 -10.02795,-9.19229 -6.32716,-3.46203 -15.75821,-3.46203 -8.71477,0 -15.04193,3.10389 -6.20778,3.10389 -10.26671,8.83415 -4.05893,5.61087 -6.0884,13.3706 -1.91009,7.75972 -1.91009,16.95201 0,8.83415 1.55195,16.59387 1.67132,7.75973 5.37212,13.60937 3.82017,5.73025 10.14733,9.19228 6.32716,3.34265 15.75821,3.34265 8.59538,0 14.92254,-3.10389 6.32716,-3.10389 10.38609,-8.71476 4.05894,-5.61088 5.96902,-13.3706 1.91009,-7.75973 1.91009,-17.0714 z m 141.82387,53.60179 q 0,0.95504 -0.47753,1.67132 -0.35814,0.59691 -1.43256,1.07443 -1.07442,0.47752 -2.86513,0.71628 -1.67132,0.23876 -4.17831,0.23876 -2.74575,0 -4.53646,-0.23876 -1.67132,-0.23876 -2.74575,-0.71628 -0.95504,-0.47752 -1.31318,-1.07443 -0.35814,-0.71628 -0.35814,-1.67132 v -14.20626 q -9.19229,10.14733 -18.14582,14.80316 -8.95352,4.65584 -18.14581,4.65584 -10.74424,0 -18.14582,-3.58142 -7.2822,-3.58141 -11.81866,-9.66981 -4.53645,-6.20777 -6.56592,-14.32564 -1.91008,-8.23725 -1.91008,-19.93652 v -65.18168 q 0,-0.95505 0.35814,-1.55195 0.47752,-0.71628 1.67132,-1.1938 1.19381,-0.5969 3.10389,-0.71628 1.91009,-0.23877 4.77522,-0.23877 2.86513,0 4.77521,0.23877 1.91009,0.11938 2.98451,0.71628 1.19381,0.47752 1.67133,1.1938 0.47752,0.5969 0.47752,1.55195 v 62.55531 q 0,9.43105 1.31318,15.16131 1.43257,5.61087 4.17832,9.66981 2.86513,3.93955 7.16282,6.20778 4.29769,2.14884 10.02795,2.14884 7.40158,0 14.68379,-5.25273 7.40158,-5.25274 15.63882,-15.40007 v -75.09025 q 0,-0.95505 0.35814,-1.55195 0.47753,-0.71628 1.67133,-1.1938 1.1938,-0.5969 2.98451,-0.71628 1.91009,-0.23877 4.89459,-0.23877 2.86513,0 4.77522,0.23877 1.91009,0.11938 2.98451,0.71628 1.07442,0.47752 1.55194,1.1938 0.59691,0.5969 0.59691,1.55195 z m 92.28105,-7.87911 q 0,3.46204 -0.47752,5.4915 -0.47752,2.02947 -1.43256,2.98451 -0.95505,0.95504 -2.86513,1.79071 -1.91009,0.83566 -4.41708,1.31318 -2.3876,0.5969 -5.13335,0.95504 -2.74575,0.35814 -5.4915,0.35814 -8.35663,0 -14.32564,-2.14884 -5.96902,-2.26823 -9.78919,-6.6853 -3.82018,-4.53646 -5.61088,-11.34114 -1.67133,-6.92406 -1.67133,-16.23573 V 739.8231 h -15.04192 q -1.79071,0 -2.86513,-1.91009 -1.07443,-1.91008 -1.07443,-6.20778 0,-2.26822 0.23876,-3.82017 0.35815,-1.55194 0.83567,-2.50699 0.47752,-1.07442 1.1938,-1.43256 0.83566,-0.47752 1.79071,-0.47752 h 14.92254 v -25.5474 q 0,-0.83567 0.35814,-1.55195 0.47753,-0.71628 1.55195,-1.1938 1.1938,-0.5969 3.10389,-0.83566 1.91008,-0.23876 4.77521,-0.23876 2.98451,0 4.8946,0.23876 1.91008,0.23876 2.98451,0.83566 1.07442,0.47752 1.55194,1.1938 0.47752,0.71628 0.47752,1.55195 v 25.5474 h 27.57687 q 0.95504,0 1.67132,0.47752 0.71629,0.35814 1.19381,1.43256 0.5969,0.95505 0.83566,2.50699 0.23876,1.55195 0.23876,3.82017 0,4.2977 -1.07442,6.20778 -1.07443,1.91009 -2.86513,1.91009 h -27.57687 v 59.92894 q 0,11.10238 3.22327,16.83264 3.34265,5.61087 11.81866,5.61087 2.74575,0 4.8946,-0.47752 2.14884,-0.5969 3.82017,-1.1938 1.67132,-0.5969 2.86513,-1.07443 1.1938,-0.5969 2.14884,-0.5969 0.5969,0 1.07443,0.35814 0.5969,0.23876 0.83566,1.07443 0.35814,0.83566 0.5969,2.26822 0.23876,1.43257 0.23876,3.58141 z"
     id="text5"
     aria-label="Kickout" /><g
     style="fill:none;stroke:#0059ff;stroke-opacity:1"
     id="g6"
     transform="matrix(40.606897,0,0,40.606897,119.66289,-168.99924)"><path
       d="M 7,17 17,7 m 0,0 H 8 m 9,0 v 9"
       stroke="#000000"
       stroke-width="2"
       stroke-linecap="round"
       stroke-linejoin="round"
       id="path1"
       style="fill:none;stroke:#0059ff;stroke-opacity:1" /></g></svg>
