<?xml version="1.0" encoding="UTF-8" standalone="no"?>
<!-- Uploaded to: SVG Repo, www.svgrepo.com, Transformed by: SVG Repo Mixer Tools -->

<svg
   width="923.62714"
   height="699.81677"
   viewBox="-102.4 -102.4 1418.6913 1074.9186"
   fill="#ff0000"
   class="icon"
   version="1.1"
   stroke="#ff0000"
   stroke-width="15.36"
   id="svg3"
   xmlns="http://www.w3.org/2000/svg"
   xmlns:svg="http://www.w3.org/2000/svg">
  <defs
     id="defs3" />
  <rect
     style="fill:#ffffff;stroke-width:0;stroke-dasharray:none"
     id="rect4-8"
     width="1418.6913"
     height="1074.9186"
     x="-102.39999"
     y="-102.4"
     rx="133.32036" />
  <rect
     style="fill:#4d4d4d;stroke-width:0;stroke-dasharray:none"
     id="rect4"
     width="1327.6691"
     height="1005.9525"
     x="-56.888878"
     y="-67.916969"
     rx="124.76662" />
  <g
     id="SVGRepo_iconCarrier"
     transform="matrix(0.58639154,0,0,0.58639154,306.78476,28.563248)">
    <path
       d="M 512,897.6 C 404,897.6 302.4,855.2 226.4,779.2 150.4,703.2 108,601.6 108,493.6 108,385.6 150.4,284 226.4,208 302.4,132 404,89.6 512,89.6 c 108,0 209.6,42.4 285.6,118.4 157.6,157.6 157.6,413.6 0,571.2 -76,76 -177.6,118.4 -285.6,118.4 z m 0,-760 c -95.2,0 -184.8,36.8 -252,104 -67.2,67.2 -104,156.8 -104,252 0,95.2 36.8,184.8 104,252 67.2,67.2 156.8,104 252,104 95.2,0 184.8,-36.8 252,-104 139.2,-139.2 139.2,-364.8 0,-504 -67.2,-67.2 -156.8,-104 -252,-104 z"
       fill=""
       id="path1" />
    <path
       d="M 707.872,329.392 348.096,689.16 316.416,657.48 676.192,297.712 Z"
       fill=""
       id="path2" />
    <path
       d="m 328,340.8 32,-31.2 348,348 -32,32 z"
       fill=""
       id="path3" />
  </g>
  <path
     style="font-size:244.491px;font-family:Calibri;-inkscape-font-specification:Calibri;fill:#ffffff;stroke-width:0"
     d="m 561.93926,833.89483 q 0,0.95504 -0.47753,1.67132 -0.47752,0.71629 -1.67132,1.19381 -1.1938,0.35814 -3.10389,0.5969 -1.79071,0.35814 -4.77521,0.35814 -2.74575,0 -4.77522,-0.35814 -1.91009,-0.23876 -3.10389,-0.5969 -1.07442,-0.47752 -1.55194,-1.19381 -0.47753,-0.71628 -0.47753,-1.67132 V 699.35315 h -0.23876 l -55.03435,135.13858 q -0.35814,0.83566 -1.07442,1.43256 -0.5969,0.59691 -1.91009,1.07443 -1.1938,0.35814 -2.9845,0.47752 -1.67133,0.23876 -4.05894,0.23876 -2.50699,0 -4.29769,-0.23876 -1.79071,-0.23876 -2.98451,-0.5969 -1.1938,-0.47752 -1.91009,-1.07443 -0.5969,-0.5969 -0.83566,-1.31318 L 414.02698,699.35315 h -0.11938 v 134.54168 q 0,0.95504 -0.47752,1.67132 -0.47753,0.71629 -1.67133,1.19381 -1.1938,0.35814 -3.10389,0.5969 -1.91008,0.35814 -4.89459,0.35814 -2.86513,0 -4.77522,-0.35814 -1.91008,-0.23876 -3.10389,-0.5969 -1.07442,-0.47752 -1.55194,-1.19381 -0.35814,-0.71628 -0.35814,-1.67132 V 691.83219 q 0,-5.01398 2.62636,-7.16282 2.62637,-2.14885 5.84964,-2.14885 h 12.41556 q 3.82017,0 6.6853,0.71628 2.86513,0.71628 5.01398,2.26823 2.14884,1.55194 3.58141,3.93955 1.43256,2.38761 2.50699,5.61088 l 44.76763,111.85941 h 0.59691 L 524.5732,695.4136 q 1.31318,-3.58141 2.86513,-6.0884 1.55194,-2.50699 3.34265,-3.93955 1.91009,-1.55195 4.17831,-2.14885 2.26823,-0.71628 5.25274,-0.71628 h 13.01246 q 1.79071,0 3.34265,0.5969 1.67133,0.47752 2.74575,1.67133 1.1938,1.07442 1.91008,2.86513 0.71629,1.67132 0.71629,4.17831 z m 58.49638,0.11938 q 0,0.95504 -0.47752,1.67132 -0.47752,0.59691 -1.55194,1.07443 -1.07443,0.47752 -2.98451,0.71628 -1.91009,0.23876 -4.8946,0.23876 -2.86513,0 -4.77521,-0.23876 -1.91009,-0.23876 -3.10389,-0.71628 -1.07442,-0.47752 -1.55195,-1.07443 -0.35814,-0.71628 -0.35814,-1.67132 V 726.57188 q 0,-0.83567 0.35814,-1.55195 0.47753,-0.71628 1.55195,-1.1938 1.1938,-0.47752 3.10389,-0.71628 1.91008,-0.23877 4.77521,-0.23877 2.98451,0 4.8946,0.23877 1.91008,0.23876 2.98451,0.71628 1.07442,0.47752 1.55194,1.1938 0.47752,0.71628 0.47752,1.55195 z m 2.26823,-143.73397 q 0,6.92407 -2.62637,9.43105 -2.62636,2.50699 -9.66981,2.50699 -6.92406,0 -9.55043,-2.38761 -2.50698,-2.50698 -2.50698,-9.31167 0,-6.92406 2.62636,-9.43104 2.62637,-2.50699 9.66981,-2.50699 6.92407,0 9.43105,2.50699 2.62637,2.3876 2.62637,9.19228 z m 101.59269,114.48578 q 0,8.23724 -3.10389,14.68378 -2.98451,6.44654 -8.59539,10.86362 -5.61088,4.41707 -13.3706,6.6853 -7.75972,2.26823 -17.07139,2.26823 -5.73026,0 -10.983,-0.95505 -5.13335,-0.83566 -9.31167,-2.14884 -4.05893,-1.43257 -6.92406,-2.86513 -2.86513,-1.55195 -4.17831,-2.74575 -1.31318,-1.19381 -1.91009,-3.34265 -0.5969,-2.14885 -0.5969,-5.84964 0,-2.26823 0.23876,-3.82017 0.23876,-1.55195 0.5969,-2.50699 0.35815,-0.95504 0.95505,-1.31318 0.71628,-0.47753 1.55194,-0.47753 1.31319,0 3.82017,1.67133 2.62637,1.55194 6.32716,3.46203 3.82017,1.91009 8.95353,3.58141 5.13336,1.55195 11.81866,1.55195 5.01397,0 9.07291,-1.07443 4.05893,-1.07442 7.04344,-3.10389 2.98451,-2.14884 4.53645,-5.37211 1.67133,-3.22327 1.67133,-7.64035 0,-4.53645 -2.38761,-7.64034 -2.26823,-3.10389 -6.0884,-5.4915 -3.82017,-2.3876 -8.59539,-4.17831 -4.77521,-1.91009 -9.90857,-3.93955 -5.01397,-2.02947 -9.90857,-4.53646 -4.77521,-2.62636 -8.59538,-6.32716 -3.82018,-3.70079 -6.20778,-8.83414 -2.26823,-5.13336 -2.26823,-12.29618 0,-6.32716 2.38761,-12.05742 2.50698,-5.84964 7.40158,-10.14733 4.89459,-4.41707 12.1768,-7.04344 7.40158,-2.62637 17.19077,-2.62637 4.29769,0 8.59539,0.71628 4.29769,0.71628 7.75972,1.79071 3.46203,1.07442 5.84964,2.3876 2.50699,1.19381 3.70079,2.14885 1.31319,0.95504 1.67133,1.67133 0.47752,0.71628 0.5969,1.67132 0.23876,0.83566 0.35814,2.14885 0.23876,1.31318 0.23876,3.22327 0,2.02946 -0.23876,3.58141 -0.11938,1.43256 -0.5969,2.38761 -0.35814,0.95504 -0.95505,1.43256 -0.5969,0.35814 -1.31318,0.35814 -1.07442,0 -3.10389,-1.31318 -2.02947,-1.31319 -5.25274,-2.74575 -3.22327,-1.55194 -7.64034,-2.86513 -4.29769,-1.31318 -9.90857,-1.31318 -5.01398,0 -8.83415,1.1938 -3.82017,1.07442 -6.32716,3.22327 -2.3876,2.02947 -3.70079,4.8946 -1.1938,2.86512 -1.1938,6.20777 0,4.65584 2.38761,7.87911 2.3876,3.10389 6.20777,5.4915 3.82018,2.3876 8.71477,4.29769 4.8946,1.91009 9.90857,3.93955 5.13336,2.02947 10.02795,4.53646 5.01398,2.50698 8.83415,6.08839 3.82017,3.58142 6.0884,8.59539 2.38761,5.01398 2.38761,11.93804 z m 95.62368,0 q 0,8.23724 -3.10388,14.68378 -2.98451,6.44654 -8.59539,10.86362 -5.61088,4.41707 -13.3706,6.6853 -7.75973,2.26823 -17.0714,2.26823 -5.73025,0 -10.98299,-0.95505 -5.13336,-0.83566 -9.31167,-2.14884 -4.05893,-1.43257 -6.92406,-2.86513 -2.86513,-1.55195 -4.17831,-2.74575 -1.31319,-1.19381 -1.91009,-3.34265 -0.5969,-2.14885 -0.5969,-5.84964 0,-2.26823 0.23876,-3.82017 0.23876,-1.55195 0.5969,-2.50699 0.35814,-0.95504 0.95504,-1.31318 0.71629,-0.47753 1.55195,-0.47753 1.31318,0 3.82017,1.67133 2.62637,1.55194 6.32716,3.46203 3.82017,1.91009 8.95353,3.58141 5.13335,1.55195 11.81866,1.55195 5.01397,0 9.0729,-1.07443 4.05894,-1.07442 7.04345,-3.10389 2.9845,-2.14884 4.53645,-5.37211 1.67132,-3.22327 1.67132,-7.64035 0,-4.53645 -2.3876,-7.64034 -2.26823,-3.10389 -6.0884,-5.4915 -3.82017,-2.3876 -8.59539,-4.17831 -4.77521,-1.91009 -9.90857,-3.93955 -5.01397,-2.02947 -9.90857,-4.53646 -4.77521,-2.62636 -8.59539,-6.32716 -3.82017,-3.70079 -6.20778,-8.83414 -2.26822,-5.13336 -2.26822,-12.29618 0,-6.32716 2.3876,-12.05742 2.50699,-5.84964 7.40159,-10.14733 4.89459,-4.41707 12.1768,-7.04344 7.40158,-2.62637 17.19077,-2.62637 4.29769,0 8.59539,0.71628 4.29769,0.71628 7.75972,1.79071 3.46203,1.07442 5.84964,2.3876 2.50699,1.19381 3.70079,2.14885 1.31318,0.95504 1.67132,1.67133 0.47753,0.71628 0.59691,1.67132 0.23876,0.83566 0.35814,2.14885 0.23876,1.31318 0.23876,3.22327 0,2.02946 -0.23876,3.58141 -0.11938,1.43256 -0.5969,2.38761 -0.35815,0.95504 -0.95505,1.43256 -0.5969,0.35814 -1.31318,0.35814 -1.07443,0 -3.10389,-1.31318 -2.02947,-1.31319 -5.25274,-2.74575 -3.22327,-1.55194 -7.64034,-2.86513 -4.29769,-1.31318 -9.90857,-1.31318 -5.01398,0 -8.83415,1.1938 -3.82017,1.07442 -6.32716,3.22327 -2.38761,2.02947 -3.70079,4.8946 -1.1938,2.86512 -1.1938,6.20777 0,4.65584 2.3876,7.87911 2.38761,3.10389 6.20778,5.4915 3.82017,2.3876 8.71477,4.29769 4.89459,1.91009 9.90857,3.93955 5.13336,2.02947 10.02795,4.53646 5.01398,2.50698 8.83415,6.08839 3.82017,3.58142 6.0884,8.59539 2.3876,5.01398 2.3876,11.93804 z"
     id="text5"
     aria-label="Miss" />
</svg>
