<?xml version="1.0" encoding="UTF-8" standalone="no"?>
<!-- Uploaded to: SVG Repo, www.svgrepo.com, Transformed by: SVG Repo Mixer Tools -->

<svg
   width="923.62714"
   height="699.81677"
   viewBox="-102.4 -102.4 1418.6913 1074.9186"
   fill="#ff0000"
   class="icon"
   version="1.1"
   stroke="#ff0000"
   stroke-width="15.36"
   id="svg3"
   xml:space="preserve"
   xmlns="http://www.w3.org/2000/svg"
   xmlns:svg="http://www.w3.org/2000/svg"><defs
     id="defs3" /><rect
     style="fill:#ffffff;stroke-width:0;stroke-dasharray:none"
     id="rect4-8"
     width="1418.6913"
     height="1074.9186"
     x="-102.39999"
     y="-102.4"
     rx="133.32036" /><rect
     style="fill:#4d4d4d;stroke-width:0;stroke-dasharray:none"
     id="rect4"
     width="1327.6691"
     height="1005.9525"
     x="-56.888878"
     y="-67.916969"
     rx="124.76662" /><path
     style="font-size:244.491px;font-family:Calibri;-inkscape-font-specification:'Calibri, Normal';fill:#ffffff;stroke-width:0"
     d="m 458.66777,828.52271 q 0,2.38761 -0.83567,4.05893 -0.71628,1.67133 -2.02946,2.74575 -1.19381,1.07443 -2.74575,1.55195 -1.55195,0.47752 -3.10389,0.47752 h -6.56592 q -3.10389,0 -5.4915,-0.5969 -2.26823,-0.71628 -4.41707,-2.38761 -2.02947,-1.79071 -4.17832,-4.77521 -2.02946,-2.98451 -4.53645,-7.64035 l -48.70719,-87.86395 q -3.82017,-6.80468 -7.75972,-14.20626 -3.82018,-7.52097 -7.16283,-14.56441 h -0.23876 q 0.23876,8.59539 0.35814,17.54891 0.11938,8.95353 0.11938,17.78768 v 93.23607 q 0,0.83566 -0.47752,1.67132 -0.47752,0.71629 -1.67132,1.19381 -1.07443,0.35814 -2.98451,0.5969 -1.79071,0.35814 -4.65584,0.35814 -2.86512,0 -4.77521,-0.35814 -1.79071,-0.23876 -2.86513,-0.5969 -1.07442,-0.47752 -1.55194,-1.19381 -0.47753,-0.83566 -0.47753,-1.67132 V 691.35467 q 0,-4.77522 2.62637,-6.80468 2.62637,-2.02947 5.73026,-2.02947 h 9.78919 q 3.46203,0 5.73026,0.5969 2.38761,0.5969 4.17831,2.02947 1.91009,1.31318 3.58141,3.82017 1.79071,2.38761 3.82017,6.0884 l 37.48544,67.80805 q 3.46203,6.20778 6.6853,12.1768 3.22327,5.84963 6.20778,11.57989 2.98451,5.73026 5.84964,11.34114 2.98451,5.49149 5.84964,11.10237 h 0.11938 q -0.23876,-9.43105 -0.35814,-19.57838 0,-10.26671 0,-19.69776 v -83.80502 q 0,-0.83566 0.47752,-1.55194 0.47752,-0.71629 1.55194,-1.19381 1.19381,-0.5969 2.98451,-0.83566 1.91009,-0.23876 4.8946,-0.23876 2.62636,0 4.53645,0.23876 1.91009,0.23876 2.98451,0.83566 1.07442,0.47752 1.55194,1.19381 0.47753,0.71628 0.47753,1.55194 z m 138.71998,-49.42347 q 0,13.13184 -3.46203,24.23421 -3.46203,10.983 -10.38609,18.98148 -6.80468,7.99849 -17.19077,12.53494 -10.26671,4.41708 -23.87608,4.41708 -13.25122,0 -23.15979,-3.93956 -9.78919,-3.93955 -16.35511,-11.46051 -6.56592,-7.52097 -9.78919,-18.2652 -3.22327,-10.74423 -3.22327,-24.35359 0,-13.13185 3.34265,-24.11484 3.46203,-11.10237 10.26671,-19.10086 6.92406,-7.99848 17.19078,-12.41556 10.26671,-4.41707 23.99545,-4.41707 13.25122,0 23.04041,3.93955 9.90857,3.93955 16.47449,11.46052 6.56592,7.52096 9.78919,18.26519 3.34265,10.74424 3.34265,24.23422 z m -20.77218,1.31318 q 0,-8.71476 -1.67133,-16.47449 -1.55194,-7.75972 -5.25273,-13.60936 -3.70079,-5.84964 -10.02795,-9.19229 -6.32716,-3.46203 -15.75821,-3.46203 -8.71477,0 -15.04193,3.10389 -6.20778,3.10389 -10.26671,8.83415 -4.05893,5.61087 -6.0884,13.3706 -1.91009,7.75972 -1.91009,16.95201 0,8.83415 1.55195,16.59387 1.67132,7.75973 5.37212,13.60937 3.82017,5.73025 10.14733,9.19228 6.32716,3.34265 15.75821,3.34265 8.59538,0 14.92254,-3.10389 6.32716,-3.10389 10.38609,-8.71476 4.05894,-5.61088 5.96902,-13.3706 1.91009,-7.75973 1.91009,-17.0714 z M 682.2672,826.1351 q 0,3.46204 -0.47752,5.4915 -0.47752,2.02947 -1.43257,2.98451 -0.95504,0.95504 -2.86513,1.79071 -1.91008,0.83566 -4.41707,1.31318 -2.38761,0.5969 -5.13336,0.95504 -2.74574,0.35814 -5.49149,0.35814 -8.35663,0 -14.32565,-2.14884 -5.96902,-2.26823 -9.78919,-6.6853 -3.82017,-4.53646 -5.61088,-11.34114 -1.67132,-6.92406 -1.67132,-16.23573 V 739.8231 h -15.04193 q -1.7907,0 -2.86513,-1.91009 -1.07442,-1.91008 -1.07442,-6.20778 0,-2.26822 0.23876,-3.82017 0.35814,-1.55194 0.83566,-2.50699 0.47753,-1.07442 1.19381,-1.43256 0.83566,-0.47752 1.7907,-0.47752 h 14.92255 v -25.5474 q 0,-0.83567 0.35814,-1.55195 0.47752,-0.71628 1.55195,-1.1938 1.1938,-0.5969 3.10389,-0.83566 1.91008,-0.23876 4.77521,-0.23876 2.98451,0 4.8946,0.23876 1.91008,0.23876 2.9845,0.83566 1.07443,0.47752 1.55195,1.1938 0.47752,0.71628 0.47752,1.55195 v 25.5474 h 27.57687 q 0.95504,0 1.67132,0.47752 0.71628,0.35814 1.1938,1.43256 0.59691,0.95505 0.83567,2.50699 0.23876,1.55195 0.23876,3.82017 0,4.2977 -1.07443,6.20778 -1.07442,1.91009 -2.86512,1.91009 h -27.57687 v 59.92894 q 0,11.10238 3.22327,16.83264 3.34265,5.61087 11.81866,5.61087 2.74575,0 4.89459,-0.47752 2.14885,-0.5969 3.82017,-1.1938 1.67133,-0.5969 2.86513,-1.07443 1.19381,-0.5969 2.14885,-0.5969 0.5969,0 1.07442,0.35814 0.5969,0.23876 0.83567,1.07443 0.35814,0.83566 0.5969,2.26822 0.23876,1.43257 0.23876,3.58141 z m 115.08266,-50.49789 q 0,4.65583 -2.3876,6.6853 -2.26823,1.91008 -5.25274,1.91008 H 719.2751 q 0,8.95353 1.79071,16.11635 1.7907,7.16283 5.96902,12.29618 4.17831,5.13336 10.86361,7.87911 6.6853,2.74575 16.35511,2.74575 7.64034,0 13.60936,-1.19381 5.96902,-1.31318 10.26671,-2.86513 4.41708,-1.55194 7.16283,-2.74575 2.86513,-1.31318 4.29769,-1.31318 0.83566,0 1.43256,0.47752 0.71629,0.35814 1.07443,1.19381 0.35814,0.83566 0.47752,2.3876 0.23876,1.43257 0.23876,3.58141 0,1.55195 -0.11938,2.74575 -0.11938,1.07443 -0.35814,2.02947 -0.11938,0.83566 -0.5969,1.55194 -0.35814,0.71629 -1.07443,1.43257 -0.5969,0.5969 -3.82017,2.14884 -3.22327,1.43257 -8.35662,2.86513 -5.13336,1.43257 -11.93804,2.50699 -6.6853,1.19381 -14.32565,1.19381 -13.25122,0 -23.27917,-3.7008 -9.90857,-3.70079 -16.71325,-10.98299 -6.80468,-7.2822 -10.26671,-18.2652 -3.46203,-10.98299 -3.46203,-25.5474 0,-13.84812 3.58141,-24.83111 3.58141,-11.10238 10.26671,-18.74272 6.80468,-7.75972 16.35511,-11.81866 9.55043,-4.17831 21.36909,-4.17831 12.65432,0 21.48846,4.05893 8.95353,4.05893 14.68379,10.983 5.73026,6.80468 8.35663,16.11635 2.74574,9.19228 2.74574,19.69776 z m -19.81714,-5.84964 q 0.35814,-15.51945 -6.92406,-24.3536 -7.16282,-8.83414 -21.36909,-8.83414 -7.2822,0 -12.77369,2.74575 -5.4915,2.74574 -9.19229,7.2822 -3.70079,4.53645 -5.73026,10.62485 -2.02947,5.96902 -2.26823,12.53494 z"
     id="text5"
     aria-label="Note" /><g
     style="fill:none;fill-opacity:1;stroke:#e3c81f;stroke-width:1.40432;stroke-dasharray:none;stroke-opacity:1"
     id="g8"
     transform="matrix(27.34426,0,0,27.34426,251.48652,19.874262)"><path
       id="Vector"
       d="m 10.0002,4 h -2.8 C 6.08009,4 5.51962,4 5.0918,4.21799 4.71547,4.40973 4.40973,4.71547 4.21799,5.0918 4,5.51962 4,6.08009 4,7.2002 v 9.6 c 0,1.1201 0,1.6799 0.21799,2.1077 0.19174,0.3763 0.49748,0.6826 0.87381,0.8743 C 5.5192,20 6.07899,20 7.19691,20 h 9.60619 c 1.1179,0 1.6769,0 2.1043,-0.2178 0.3763,-0.1917 0.6831,-0.4983 0.8748,-0.8746 C 20,18.4802 20,17.921 20,16.8031 V 14 m -4,-9 -6,6 v 3 h 3 l 6,-6 m -3,-3 3,-3 3,3 -3,3 m -3,-3 3,3"
       stroke="#000000"
       stroke-width="2"
       stroke-linecap="round"
       stroke-linejoin="round"
       style="fill:none;fill-opacity:1;stroke:#e3c81f;stroke-width:1.40432;stroke-dasharray:none;stroke-opacity:1" /></g></svg>
