<?xml version="1.0" encoding="UTF-8" standalone="no"?>
<!-- Uploaded to: SVG Repo, www.svgrepo.com, Transformed by: SVG Repo Mixer Tools -->

<svg
   width="923.62714"
   height="699.81677"
   viewBox="-102.4 -102.4 1418.6913 1074.9186"
   fill="#ff0000"
   class="icon"
   version="1.1"
   stroke="#ff0000"
   stroke-width="15.36"
   id="svg3"
   xml:space="preserve"
   xmlns="http://www.w3.org/2000/svg"
   xmlns:svg="http://www.w3.org/2000/svg"><defs
     id="defs3" /><rect
     style="fill:#ffffff;stroke-width:0;stroke-dasharray:none"
     id="rect4-8"
     width="1418.6913"
     height="1074.9186"
     x="-102.39999"
     y="-102.4"
     rx="133.32036" /><rect
     style="fill:#4d4d4d;stroke-width:0;stroke-dasharray:none"
     id="rect4"
     width="1327.6691"
     height="1005.9525"
     x="-56.888878"
     y="-67.916969"
     rx="124.76662" /><text
     xml:space="preserve"
     style="font-size:15.2807px;text-align:start;writing-mode:lr-tb;direction:ltr;text-anchor:start;fill:#1a1a1a;stroke-width:0;stroke-dasharray:none"
     x="321.38034"
     y="836.99872"
     id="text5"><tspan
       id="tspan5"
       style="font-style:normal;font-variant:normal;font-weight:normal;font-stretch:normal;font-size:244.491px;font-family:Sans;-inkscape-font-specification:'Sans, Normal';font-variant-ligatures:normal;font-variant-caps:normal;font-variant-numeric:normal;font-variant-east-asian:normal;fill:#ffffff;stroke-width:0"
       x="321.38034"
       y="836.99872">Note</tspan></text><g
     style="fill:none;fill-opacity:1;stroke:#e3c81f;stroke-width:1.40432;stroke-dasharray:none;stroke-opacity:1"
     id="g8"
     transform="matrix(27.34426,0,0,27.34426,251.48652,19.874262)"><path
       id="Vector"
       d="m 10.0002,4 h -2.8 C 6.08009,4 5.51962,4 5.0918,4.21799 4.71547,4.40973 4.40973,4.71547 4.21799,5.0918 4,5.51962 4,6.08009 4,7.2002 v 9.6 c 0,1.1201 0,1.6799 0.21799,2.1077 0.19174,0.3763 0.49748,0.6826 0.87381,0.8743 C 5.5192,20 6.07899,20 7.19691,20 h 9.60619 c 1.1179,0 1.6769,0 2.1043,-0.2178 0.3763,-0.1917 0.6831,-0.4983 0.8748,-0.8746 C 20,18.4802 20,17.921 20,16.8031 V 14 m -4,-9 -6,6 v 3 h 3 l 6,-6 m -3,-3 3,-3 3,3 -3,3 m -3,-3 3,3"
       stroke="#000000"
       stroke-width="2"
       stroke-linecap="round"
       stroke-linejoin="round"
       style="fill:none;fill-opacity:1;stroke:#e3c81f;stroke-width:1.40432;stroke-dasharray:none;stroke-opacity:1" /></g></svg>
