<?xml version="1.0" encoding="UTF-8" standalone="no"?>
<!-- Uploaded to: SVG Repo, www.svgrepo.com, Transformed by: SVG Repo Mixer Tools -->

<svg
   version="1.1"
   id="_x32_"
   width="800"
   height="800"
   viewBox="-51.2 -51.2 614.4 614.4"
   xml:space="preserve"
   fill="#000000"
   xmlns="http://www.w3.org/2000/svg"
   xmlns:svg="http://www.w3.org/2000/svg"><defs
   id="defs3" />

<g
   id="SVGRepo_bgCarrier"
   stroke-width="0"
   transform="translate(0,-1.1444092e-5)">

<rect
   x="-51.200001"
   y="-51.200001"
   width="614.40002"
   height="614.40002"
   rx="307.20001"
   fill="#2563eb"
   strokewidth="0"
   id="rect1" />

</g>



<g
   id="SVGRepo_iconCarrier"
   transform="matrix(1.1853839,0,0,1.2225656,-101.23443,-83.659869)"> <style
   type="text/css"
   id="style1">  .st0{fill:#ffffff;}  </style> <g
   id="g3">   <path
   class="st0"
   d="m 456.12836,350.56613 -56.41553,-23.05907 c -9.41832,-4.33293 -15.42997,-13.75125 -15.42997,-24.07977 v -8.31927 c 0,-3.92404 0.62788,-7.83303 1.93088,-11.55314 0,0 35.47619,-47.34279 35.47619,-91.01268 0,-54.564 -34.89452,-89.64638 -77.95258,-89.64638 -43.04201,0 -77.9526,35.08338 -77.9526,89.64638 0,43.66989 35.50734,91.01268 35.50734,91.01268 1.27185,3.72011 1.93088,7.6291 1.93088,11.55314 v 8.31927 c 0,10.32852 -6.05887,19.74684 -15.46212,24.07977 l -56.41553,23.05907 c -13.1073,6.01166 -22.44726,18.06712 -25.0211,32.25739 l -2.90436,37.37494 h 140.31749 140.31747 l -2.87221,-37.37494 c -2.60699,-14.18927 -11.94696,-26.24472 -25.05425,-32.25739 z"
   id="path3"
   style="stroke-width:1.00462" /> </g> </g>

<g
   id="SVGRepo_iconCarrier-0"
   transform="matrix(0.90556989,15.534072,-15.534072,0.90556989,351.5398,117.062)"
   style="fill:#cccccc;fill-opacity:1;stroke:#000000;stroke-width:0.166301;stroke-dasharray:none;stroke-opacity:1"><path
     d="m 16.5744,19.1999 -3.9383,-3.9383 -1.2027,1.2027 C 10.2022,17.6955 9.58656,18.3111 8.92489,18.1658 8.26322,18.0204 7.96225,17.2035 7.3603,15.5696 L 5.3527,10.1205 C 4.15187,6.86106 3.55146,5.23136 4.39141,4.39141 5.23136,3.55146 6.86106,4.15187 10.1205,5.35271 l 5.4491,2.00759 c 1.6339,0.60195 2.4508,0.90292 2.5962,1.56459 0.1453,0.66167 -0.4703,1.27731 -1.7015,2.50851 l -1.2027,1.2027 3.9383,3.9383 c 0.4078,0.4077 0.6117,0.6116 0.7059,0.8391 0.1256,0.3033 0.1256,0.644 0,0.9473 -0.0942,0.2274 -0.2981,0.4313 -0.7059,0.8391 -0.4078,0.4078 -0.6117,0.6117 -0.8391,0.7059 -0.3033,0.1256 -0.644,0.1256 -0.9473,0 -0.2275,-0.0942 -0.4314,-0.2981 -0.8391,-0.7059 z"
     fill="#ffffff"
     id="path1"
     style="fill:#cccccc;fill-opacity:1;stroke:#000000;stroke-width:0.166301;stroke-dasharray:none;stroke-opacity:1" /></g></svg>
