<!DOCTYPE svg PUBLIC "-//W3C//DTD SVG 1.1//EN" "http://www.w3.org/Graphics/SVG/1.1/DTD/svg11.dtd">
<!-- Uploaded to: SVG Repo, www.svgrepo.com, Transformed by: SVG Repo Mixer Tools -->
<svg width="800px" height="800px" viewBox="-8.4 -8.4 37.80 37.80" version="1.1" xmlns="http://www.w3.org/2000/svg" xmlns:xlink="http://www.w3.org/1999/xlink" fill="#0080ff">
<g id="SVGRepo_bgCarrier" stroke-width="0">
<rect x="-8.4" y="-8.4" width="37.80" height="37.80" rx="18.9" fill="#c0c0c0" strokewidth="0"/>
</g>
<g id="SVGRepo_tracerCarrier" stroke-linecap="round" stroke-linejoin="round"/>
<g id="SVGRepo_iconCarrier"> <title>stats [#1368]</title> <desc>Created with Sketch.</desc> <defs> </defs> <g id="Page-1" stroke="none" stroke-width="1" fill="none" fill-rule="evenodd"> <g id="Dribbble-Light-Preview" transform="translate(-139.000000, -840.000000)" fill="#0080ff"> <g id="icons" transform="translate(56.000000, 160.000000)"> <path d="M99.8,698 L101.9,698 L101.9,682 L99.8,682 L99.8,698 Z M97.7,700 L104,700 L104,680 L97.7,680 L97.7,700 Z M85.1,698 L87.2,698 L87.2,686 L85.1,686 L85.1,698 Z M83,700 L89.3,700 L89.3,684 L83,684 L83,700 Z M92.45,698 L94.55,698 L94.55,692 L92.45,692 L92.45,698 Z M90.35,700 L96.65,700 L96.65,690 L90.35,690 L90.35,700 Z" id="stats-[#1368]"> </path> </g> </g> </g> </g>
</svg>