<?xml version="1.0" encoding="UTF-8" standalone="no"?>
<!-- Uploaded to: SVG Repo, www.svgrepo.com, Transformed by: SVG Repo Mixer Tools -->

<svg
   width="923.62714"
   height="699.81677"
   viewBox="-102.4 -102.4 1418.6913 1074.9186"
   fill="#ff0000"
   class="icon"
   version="1.1"
   stroke="#ff0000"
   stroke-width="15.36"
   id="svg3"
   xml:space="preserve"
   xmlns="http://www.w3.org/2000/svg"
   xmlns:svg="http://www.w3.org/2000/svg"><defs
     id="defs3" /><rect
     style="fill:#ffffff;stroke-width:0;stroke-dasharray:none"
     id="rect4-8"
     width="1418.6913"
     height="1074.9186"
     x="-102.39999"
     y="-102.4"
     rx="133.32036" /><rect
     style="fill:#4d4d4d;stroke-width:0;stroke-dasharray:none"
     id="rect4"
     width="1327.6691"
     height="1005.9525"
     x="-56.888878"
     y="-67.916969"
     rx="124.76662" /><text
     xml:space="preserve"
     style="font-size:15.2807px;text-align:start;writing-mode:lr-tb;direction:ltr;text-anchor:start;fill:#1a1a1a;stroke-width:0;stroke-dasharray:none"
     x="389.59317"
     y="836.99872"
     id="text5"><tspan
       id="tspan5"
       style="font-style:normal;font-variant:normal;font-weight:normal;font-stretch:normal;font-size:244.491px;font-family:Sans;-inkscape-font-specification:'Sans, Normal';font-variant-ligatures:normal;font-variant-caps:normal;font-variant-numeric:normal;font-variant-east-asian:normal;fill:#ffffff;stroke-width:0"
       x="389.59317"
       y="836.99872">Sub</tspan></text><g
     style="fill:#44aa00;stroke:none;stroke-width:0;stroke-dasharray:none;stroke-opacity:1"
     id="g7"
     transform="matrix(18.463143,0,0,18.463143,311.5169,13.284242)"><path
       d="M 3.25,14.008 C 3.252,13.774 3.363,8.254 10,8.25 h 14.981 l -2.866,2.866 c -0.226,0.226 -0.366,0.539 -0.366,0.884 0,0.691 0.56,1.251 1.251,1.251 0.346,0 0.658,-0.14 0.885,-0.367 v 0 l 5,-5 C 28.897,7.872 28.901,7.855 28.912,7.843 29.011,7.74 29.092,7.62 29.151,7.487 L 29.154,7.479 V 7.476 c 0.051,-0.13 0.08,-0.28 0.08,-0.438 0,-0.071 -0.006,-0.14 -0.017,-0.208 l 0.001,0.007 C 29.21,6.778 29.2,6.727 29.187,6.677 l 0.002,0.009 C 29.137,6.463 29.031,6.27 28.884,6.115 l 0.001,10e-4 -5,-5 C 23.659,0.889 23.346,0.749 23,0.749 c -0.691,0 -1.251,0.56 -1.251,1.251 0,0.345 0.14,0.658 0.366,0.884 v 0 L 24.982,5.75 H 9.999 c -7.274,0.005 -9.23,5.394 -9.249,8.242 0,0.002 0,0.005 0,0.008 0,0.688 0.555,1.246 1.242,1.25 H 2 c 0.687,0 1.245,-0.555 1.25,-1.242 z m 26.764,2.745 c -0.676,0.027 -1.22,0.559 -1.263,1.229 v 0.004 c -0.01,0.589 -0.283,5.761 -6.75,5.765 H 7.02 l 2.865,-2.865 c 0.227,-0.226 0.367,-0.539 0.367,-0.885 0,-0.691 -0.56,-1.251 -1.251,-1.251 -0.345,0 -0.658,0.14 -0.884,0.366 v 0 l -5,5 C 3.105,24.128 3.101,24.145 3.09,24.157 2.99,24.26 2.908,24.381 2.849,24.514 l -0.003,0.008 v 0.003 c -0.038,0.093 -0.065,0.2 -0.073,0.312 v 0.004 c -0.003,0.033 -0.004,0.072 -0.004,0.11 0,0.075 0.005,0.149 0.016,0.221 L 2.784,25.164 c 0.039,0.28 0.159,0.527 0.335,0.722 l -0.001,-10e-4 5,5 c 0.226,0.226 0.539,0.366 0.884,0.366 0.691,0 1.251,-0.56 1.251,-1.251 0,-0.346 -0.14,-0.658 -0.367,-0.885 L 7.02,26.25 h 14.982 c 7.275,-0.006 9.232,-5.395 9.25,-8.242 0,-0.002 0,-0.005 0,-0.007 0,-0.685 -0.552,-1.241 -1.236,-1.248 h -10e-4 z"
       id="path1-2"
       style="fill:#44aa00;stroke:none;stroke-width:0;stroke-dasharray:none;stroke-opacity:1" /></g></svg>
