<?xml version="1.0" encoding="UTF-8" standalone="no"?>
<!-- Uploaded to: SVG Repo, www.svgrepo.com, Transformed by: SVG Repo Mixer Tools -->

<svg
   width="923.62714"
   height="699.81677"
   viewBox="-102.4 -102.4 1418.6913 1074.9186"
   fill="#ff0000"
   class="icon"
   version="1.1"
   stroke="#ff0000"
   stroke-width="15.36"
   id="svg3"
   xml:space="preserve"
   xmlns="http://www.w3.org/2000/svg"
   xmlns:svg="http://www.w3.org/2000/svg"><defs
     id="defs3" /><rect
     style="fill:#ffffff;stroke-width:0;stroke-dasharray:none"
     id="rect4-8"
     width="1418.6913"
     height="1074.9186"
     x="-102.39999"
     y="-102.4"
     rx="133.32036" /><rect
     style="fill:#4d4d4d;stroke-width:0;stroke-dasharray:none"
     id="rect4"
     width="1327.6691"
     height="1005.9525"
     x="-56.888878"
     y="-67.916969"
     rx="124.76662" /><path
     style="font-size:244.491px;font-family:Calibri;-inkscape-font-specification:Calibri;fill:#ffffff;stroke-width:0"
     d="m 527.25925,793.66364 q 0,10.86362 -4.05893,19.33962 -3.93955,8.47601 -11.10238,14.44503 -7.04344,5.84964 -16.71325,8.83415 -9.55043,2.98451 -20.6528,2.98451 -7.75973,0 -14.44503,-1.31319 -6.56592,-1.31318 -11.81865,-3.22327 -5.13336,-1.91008 -8.71477,-3.93955 -3.46203,-2.02947 -4.8946,-3.46203 -1.31318,-1.43257 -2.02946,-3.58141 -0.5969,-2.26823 -0.5969,-5.96902 0,-2.62637 0.23876,-4.29769 0.23876,-1.79071 0.71628,-2.86513 0.47752,-1.07443 1.1938,-1.43257 0.71628,-0.47752 1.67133,-0.47752 1.67132,0 4.65583,2.02947 3.10389,2.02946 7.87911,4.41707 4.77521,2.38761 11.46051,4.53645 6.80468,2.02947 15.63883,2.02947 6.6853,0 12.1768,-1.7907 5.61088,-1.79071 9.55043,-5.01398 4.05893,-3.34265 6.20778,-8.11787 2.14884,-4.77521 2.14884,-10.86361 0,-6.56592 -2.98451,-11.22175 -2.9845,-4.65584 -7.8791,-8.11787 -4.8946,-3.58141 -11.22175,-6.44654 -6.20778,-2.98451 -12.7737,-5.96902 -6.56592,-3.10389 -12.7737,-6.80468 -6.20778,-3.70079 -11.10238,-8.71477 -4.89459,-5.01397 -7.99848,-11.69927 -2.98451,-6.80468 -2.98451,-16.23573 0,-9.66981 3.46203,-17.19078 3.58141,-7.64034 9.78919,-12.77369 6.32716,-5.13336 14.92255,-7.75973 8.71476,-2.74575 18.74271,-2.74575 5.13336,0 10.26671,0.95505 5.25274,0.83566 9.7892,2.3876 4.65583,1.43257 8.23724,3.34265 3.58141,1.79071 4.65584,2.98451 1.1938,1.07443 1.55194,1.79071 0.35814,0.5969 0.5969,1.67132 0.23876,0.95505 0.35814,2.38761 0.11938,1.43257 0.11938,3.70079 0,2.14885 -0.23876,3.82017 -0.11938,1.67133 -0.47752,2.86513 -0.35814,1.07443 -1.07442,1.67133 -0.5969,0.47752 -1.43257,0.47752 -1.31318,0 -4.17831,-1.67133 -2.74575,-1.67132 -6.80468,-3.70079 -4.05893,-2.14884 -9.66981,-3.82017 -5.4915,-1.7907 -12.41556,-1.7907 -6.44654,0 -11.22175,1.7907 -4.77522,1.67133 -7.87911,4.53646 -3.10389,2.86512 -4.65583,6.80468 -1.55195,3.93955 -1.55195,8.35662 0,6.44654 2.98451,11.10238 2.98451,4.65583 7.87911,8.23724 5.01397,3.58141 11.34113,6.56592 6.32716,2.98451 12.89308,6.0884 6.56592,2.98451 12.89308,6.6853 6.32716,3.58141 11.22176,8.59539 5.01397,4.89459 7.99848,11.69927 3.10389,6.68531 3.10389,15.87759 z m 119.14161,40.35057 q 0,0.95504 -0.47752,1.67132 -0.35814,0.59691 -1.43257,1.07443 -1.07442,0.47752 -2.86512,0.71628 -1.67133,0.23876 -4.17832,0.23876 -2.74575,0 -4.53645,-0.23876 -1.67133,-0.23876 -2.74575,-0.71628 -0.95504,-0.47752 -1.31318,-1.07443 -0.35814,-0.71628 -0.35814,-1.67132 v -14.20626 q -9.19229,10.14733 -18.14582,14.80316 -8.95353,4.65584 -18.14582,4.65584 -10.74423,0 -18.14581,-3.58142 -7.28221,-3.58141 -11.81866,-9.66981 -4.53645,-6.20777 -6.56592,-14.32564 -1.91009,-8.23725 -1.91009,-19.93652 v -65.18168 q 0,-0.95505 0.35814,-1.55195 0.47753,-0.71628 1.67133,-1.1938 1.1938,-0.5969 3.10389,-0.71628 1.91009,-0.23877 4.77521,-0.23877 2.86513,0 4.77522,0.23877 1.91009,0.11938 2.98451,0.71628 1.1938,0.47752 1.67132,1.1938 0.47753,0.5969 0.47753,1.55195 v 62.55531 q 0,9.43105 1.31318,15.16131 1.43256,5.61087 4.17831,9.66981 2.86513,3.93955 7.16282,6.20778 4.2977,2.14884 10.02796,2.14884 7.40158,0 14.68378,-5.25273 7.40158,-5.25274 15.63883,-15.40007 v -75.09025 q 0,-0.95505 0.35814,-1.55195 0.47752,-0.71628 1.67133,-1.1938 1.1938,-0.5969 2.9845,-0.71628 1.91009,-0.23877 4.8946,-0.23877 2.86513,0 4.77521,0.23877 1.91009,0.11938 2.98451,0.71628 1.07443,0.47752 1.55195,1.1938 0.5969,0.5969 0.5969,1.55195 z m 135.25796,-55.15373 q 0,13.9675 -3.10389,25.18926 -2.98451,11.10237 -8.95353,18.98147 -5.84964,7.87911 -14.44502,12.05742 -8.59539,4.17832 -19.69776,4.17832 -5.13336,0 -9.55043,-1.07443 -4.2977,-0.95504 -8.47601,-3.22327 -4.17831,-2.26823 -8.35663,-5.73026 -4.17831,-3.46203 -8.83414,-8.35662 v 13.13184 q 0,0.95504 -0.47752,1.67132 -0.47753,0.71629 -1.55195,1.19381 -1.07442,0.35814 -2.74575,0.5969 -1.55194,0.23876 -4.05893,0.23876 -2.38761,0 -4.05893,-0.23876 -1.67133,-0.23876 -2.74575,-0.5969 -1.07442,-0.47752 -1.43257,-1.19381 -0.35814,-0.71628 -0.35814,-1.67132 V 674.52203 q 0,-0.95504 0.35814,-1.67132 0.47753,-0.71628 1.55195,-1.1938 1.1938,-0.47753 3.10389,-0.71629 1.91008,-0.23876 4.77521,-0.23876 2.98451,0 4.8946,0.23876 1.91008,0.23876 2.98451,0.71629 1.07442,0.47752 1.55194,1.1938 0.47752,0.71628 0.47752,1.67132 v 64.34602 q 4.77522,-4.89459 9.19229,-8.23724 4.53646,-3.34265 8.83415,-5.37212 4.29769,-2.14884 8.59539,-3.10389 4.29769,-0.95504 9.0729,-0.95504 11.69928,0 19.93653,4.65583 8.35662,4.65584 13.48998,12.53494 5.25273,7.75973 7.64034,18.2652 2.38761,10.50547 2.38761,22.20475 z m -20.77218,2.26823 q 0,-8.23725 -1.31319,-15.99697 -1.1938,-7.75973 -4.29769,-13.72875 -3.10389,-5.96902 -8.23725,-9.55043 -5.13335,-3.70079 -12.7737,-3.70079 -3.82017,0 -7.52096,1.07443 -3.70079,1.07442 -7.52096,3.58141 -3.82018,2.50698 -7.99849,6.44654 -4.05893,3.93955 -8.71477,9.90857 v 42.85755 q 8.11787,9.90857 15.51945,15.16131 7.40159,5.13335 15.40007,5.13335 7.40158,0 12.65432,-3.58141 5.25274,-3.58141 8.47601,-9.43105 3.34265,-5.96902 4.77521,-13.25122 1.55195,-7.40158 1.55195,-14.92254 z"
     id="text5"
     aria-label="Sub" /><g
     style="fill:#44aa00;stroke:none;stroke-width:0;stroke-dasharray:none;stroke-opacity:1"
     id="g7"
     transform="matrix(18.463143,0,0,18.463143,311.5169,13.284242)"><path
       d="M 3.25,14.008 C 3.252,13.774 3.363,8.254 10,8.25 h 14.981 l -2.866,2.866 c -0.226,0.226 -0.366,0.539 -0.366,0.884 0,0.691 0.56,1.251 1.251,1.251 0.346,0 0.658,-0.14 0.885,-0.367 v 0 l 5,-5 C 28.897,7.872 28.901,7.855 28.912,7.843 29.011,7.74 29.092,7.62 29.151,7.487 L 29.154,7.479 V 7.476 c 0.051,-0.13 0.08,-0.28 0.08,-0.438 0,-0.071 -0.006,-0.14 -0.017,-0.208 l 0.001,0.007 C 29.21,6.778 29.2,6.727 29.187,6.677 l 0.002,0.009 C 29.137,6.463 29.031,6.27 28.884,6.115 l 0.001,10e-4 -5,-5 C 23.659,0.889 23.346,0.749 23,0.749 c -0.691,0 -1.251,0.56 -1.251,1.251 0,0.345 0.14,0.658 0.366,0.884 v 0 L 24.982,5.75 H 9.999 c -7.274,0.005 -9.23,5.394 -9.249,8.242 0,0.002 0,0.005 0,0.008 0,0.688 0.555,1.246 1.242,1.25 H 2 c 0.687,0 1.245,-0.555 1.25,-1.242 z m 26.764,2.745 c -0.676,0.027 -1.22,0.559 -1.263,1.229 v 0.004 c -0.01,0.589 -0.283,5.761 -6.75,5.765 H 7.02 l 2.865,-2.865 c 0.227,-0.226 0.367,-0.539 0.367,-0.885 0,-0.691 -0.56,-1.251 -1.251,-1.251 -0.345,0 -0.658,0.14 -0.884,0.366 v 0 l -5,5 C 3.105,24.128 3.101,24.145 3.09,24.157 2.99,24.26 2.908,24.381 2.849,24.514 l -0.003,0.008 v 0.003 c -0.038,0.093 -0.065,0.2 -0.073,0.312 v 0.004 c -0.003,0.033 -0.004,0.072 -0.004,0.11 0,0.075 0.005,0.149 0.016,0.221 L 2.784,25.164 c 0.039,0.28 0.159,0.527 0.335,0.722 l -0.001,-10e-4 5,5 c 0.226,0.226 0.539,0.366 0.884,0.366 0.691,0 1.251,-0.56 1.251,-1.251 0,-0.346 -0.14,-0.658 -0.367,-0.885 L 7.02,26.25 h 14.982 c 7.275,-0.006 9.232,-5.395 9.25,-8.242 0,-0.002 0,-0.005 0,-0.007 0,-0.685 -0.552,-1.241 -1.236,-1.248 h -10e-4 z"
       id="path1-2"
       style="fill:#44aa00;stroke:none;stroke-width:0;stroke-dasharray:none;stroke-opacity:1" /></g></svg>
