<?xml version="1.0" encoding="UTF-8" standalone="no"?>
<!-- Uploaded to: SVG Repo, www.svgrepo.com, Transformed by: SVG Repo Mixer Tools -->

<svg
   width="868.39581"
   height="868.39575"
   viewBox="-3.6 -3.6 33.867436 33.867435"
   fill="none"
   version="1.1"
   id="svg1"
   xmlns="http://www.w3.org/2000/svg"
   xmlns:svg="http://www.w3.org/2000/svg">
  <defs
     id="defs1" />
  <circle
     style="fill:#ff7f2a;fill-opacity:1;stroke-width:2.64261"
     id="path21"
     cx="13.333717"
     cy="13.333717"
     r="16.933718" />
  <g
     id="SVGRepo_bgCarrier"
     stroke-width="0"
     style="fill:#1a1a1a"
     transform="translate(1.3337173,1.3337171)">
    <rect
       x="-3.5999999"
       y="-3.5999999"
       width="31.200001"
       height="31.200001"
       rx="15.6"
       fill="#2563eb"
       strokewidth="0"
       id="rect1"
       style="fill:#1a1a1a" />
  </g>
  <g
     id="SVGRepo_iconCarrier"
     style="fill:#ff7f2a"
     transform="matrix(0.93443881,0,0,0.93443881,2.1852996,1.9577118)">
    <g
       id="Navigation / Flag"
       style="fill:#ff7f2a">
      <path
         style="fill:#ff7f2a;stroke-width:95.9517"
         d="m 182.38554,651.46942 c -2.60225,-1.66638 -6.34097,-5.77638 -8.30828,-9.13335 l -3.57693,-6.10356 0.0635,-212.27601 c 0.0349,-116.7518 0.62735,-217.14972 1.31655,-223.10649 1.22346,-10.57424 1.41852,-10.97569 8.24483,-16.96816 17.22473,-15.12072 37.68149,-26.08044 60.58601,-32.459 9.98618,-2.781 14.97978,-3.18184 39.60294,-3.17893 23.73733,0.003 30.45209,0.50634 42.62508,3.19644 30.79675,6.80576 49.38487,13.30366 101.61259,35.521 16.15169,6.87082 36.95851,14.84803 46.23738,17.72713 15.59217,4.83802 18.58799,5.28683 39.53125,5.9223 20.42698,0.61981 23.69653,0.37292 33.17089,-2.50483 12.1126,-3.67909 27.38001,-11.07818 38.81068,-18.80896 12.10488,-8.18674 16.61828,-10.12716 23.55572,-10.12716 7.38914,0 14.46067,4.12234 19.2417,11.21691 2.76173,4.09812 3.25481,7.45393 4.18125,28.45649 0.57765,13.09576 0.79183,81.88016 0.47595,152.85423 -0.66126,148.5737 1.00947,133.50055 -16.23937,146.51082 -11.58898,8.74121 -33.46504,20.3793 -48.10346,25.59111 -18.46038,6.57254 -33.38342,8.59435 -56.80261,7.69576 -33.97348,-1.30356 -52.45642,-6.63901 -114.87099,-33.15963 -68.27749,-29.01184 -78.1666,-31.93653 -108.36885,-32.05001 -21.97719,-0.0826 -32.24271,2.47237 -53.10074,13.2161 l -12.64303,6.51227 -0.004,39.95019 c -0.002,21.97261 -0.43358,52.24006 -0.95852,67.261 l -0.95444,27.3108 -4.31318,4.91243 c -2.37225,2.70184 -6.13501,5.85455 -8.36169,7.00601 -6.00491,3.10525 -17.01013,2.62671 -22.65009,-0.9849 z"
         id="path2"
         transform="matrix(0.039,0,0,0.039,-3.6,-3.6)" />
      <path
         style="fill:#ff7f2a;stroke-width:95.9517"
         d="m 182.38554,651.46942 c -2.60225,-1.66638 -6.34097,-5.77638 -8.30828,-9.13335 l -3.57693,-6.10356 0.0635,-212.27601 c 0.0349,-116.7518 0.62735,-217.14972 1.31655,-223.10649 1.22346,-10.57424 1.41852,-10.97569 8.24483,-16.96816 17.22473,-15.12072 37.68149,-26.08044 60.58601,-32.459 9.98618,-2.781 14.97978,-3.18184 39.60294,-3.17893 23.73733,0.003 30.45209,0.50634 42.62508,3.19644 30.79675,6.80576 49.38487,13.30366 101.61259,35.521 16.15169,6.87082 36.95851,14.84803 46.23738,17.72713 15.59217,4.83802 18.58799,5.28683 39.53125,5.9223 20.42899,0.61987 23.70174,0.37266 33.23312,-2.51032 12.35578,-3.73729 26.87719,-10.76167 38.46594,-18.60699 12.39094,-8.38837 16.85967,-10.32364 23.83823,-10.32364 7.38914,0 14.46067,4.12234 19.2417,11.21691 2.76173,4.09812 3.25481,7.45393 4.18125,28.45649 0.57765,13.09576 0.79183,81.88016 0.47595,152.85423 -0.66084,148.48103 1.01737,133.28755 -16.17003,146.39345 -11.4895,8.76107 -33.37033,20.43827 -48.1728,25.70848 -18.46038,6.57254 -33.38342,8.59435 -56.80261,7.69576 -33.97348,-1.30356 -52.45642,-6.63901 -114.87099,-33.15963 -68.27749,-29.01184 -78.1666,-31.93653 -108.36885,-32.05001 -21.97719,-0.0826 -32.24271,2.47237 -53.10074,13.2161 l -12.64303,6.51227 -0.004,39.95019 c -0.002,21.97261 -0.43358,52.24006 -0.95852,67.261 l -0.95444,27.3108 -4.31318,4.91243 c -2.37225,2.70184 -6.13501,5.85455 -8.36169,7.00601 -6.00491,3.10525 -17.01013,2.62671 -22.65009,-0.9849 z"
         id="path3"
         transform="matrix(0.039,0,0,0.039,-3.6,-3.6)" />
      <path
         style="fill:#ff7f2a;stroke-width:95.9517"
         d="m 182.38554,651.46942 c -2.60225,-1.66638 -6.34097,-5.77638 -8.30828,-9.13335 l -3.57693,-6.10356 0.0635,-212.27601 c 0.0349,-116.7518 0.62347,-217.1144 1.30794,-223.028 1.21258,-10.47636 1.42394,-10.91053 8.24483,-16.93601 26.67411,-23.56359 55.26452,-34.78419 92.25051,-36.20467 39.64434,-1.52258 74.50241,6.51845 130.32549,30.06335 71.2614,30.05643 76.99001,31.79941 107.62786,32.74662 20.44938,0.63222 23.69222,0.38854 33.23312,-2.49732 12.35578,-3.73729 26.87719,-10.76167 38.46594,-18.60699 12.39094,-8.38837 16.85967,-10.32364 23.83823,-10.32364 7.38914,0 14.46067,4.12234 19.2417,11.21691 2.76516,4.1032 3.25492,7.45648 4.19204,28.70141 0.5836,13.23047 0.7813,82.03852 0.43931,152.90676 l -0.62179,128.85138 -3.26163,5.27742 c -4.29423,6.94824 -19.17702,17.95688 -36.26617,26.8257 -29.31096,15.21165 -49.19114,19.76509 -80.97,18.54574 -33.43455,-1.28289 -53.06193,-6.85024 -110.53623,-31.35386 -66.73419,-28.45147 -79.20245,-32.45499 -106.23477,-34.11164 -21.24091,-1.30172 -34.87594,1.58092 -55.95728,11.8302 l -16.25533,7.90298 v 38.75968 c 0,21.31781 -0.43144,51.64186 -0.95875,67.38677 l -0.95875,28.62711 -4.31296,4.91217 c -2.37212,2.7017 -6.13478,5.85429 -8.36146,7.00575 -6.00491,3.10525 -17.01013,2.62671 -22.65009,-0.9849 z"
         id="path4"
         transform="matrix(0.039,0,0,0.039,-3.6,-3.6)" />
      <path
         style="fill:#ff7f2a;stroke-width:95.9517"
         d="m 182.38554,651.46942 c -2.60225,-1.66638 -6.34097,-5.77638 -8.30828,-9.13335 l -3.57693,-6.10356 0.0635,-212.27601 c 0.0349,-116.7518 0.62347,-217.1144 1.30794,-223.028 1.21258,-10.47636 1.42394,-10.91053 8.24483,-16.93601 26.67411,-23.56359 55.26452,-34.78419 92.25051,-36.20467 39.64434,-1.52258 74.50241,6.51845 130.32549,30.06335 71.2614,30.05643 76.99001,31.79941 107.62786,32.74662 20.44938,0.63222 23.69222,0.38854 33.23312,-2.49732 12.35578,-3.73729 26.87719,-10.76167 38.46594,-18.60699 12.39094,-8.38837 16.85967,-10.32364 23.83823,-10.32364 7.38836,0 14.4606,4.12223 19.24016,11.2146 2.79132,4.14206 3.24463,7.41007 4.19624,30.25209 0.58677,14.08462 0.77838,82.90468 0.4258,152.93346 l -0.64106,127.32505 -3.24656,5.25304 c -4.28031,6.9257 -19.18211,17.94297 -36.25112,26.80134 -29.31096,15.21165 -49.19114,19.76509 -80.97,18.54574 -33.41507,-1.28213 -53.01425,-6.86171 -111.25869,-31.67357 -66.02079,-28.12457 -78.55903,-32.14013 -105.51231,-33.79193 -21.24091,-1.30172 -34.87594,1.58092 -55.95728,11.8302 l -16.25533,7.90298 v 36.59168 c 0,20.12543 -0.43158,50.44963 -0.95907,67.38714 l -0.95906,30.79545 -4.31264,4.91182 c -2.37195,2.70151 -6.13447,5.85393 -8.36115,7.00539 -6.00491,3.10525 -17.01013,2.62671 -22.65009,-0.9849 z"
         id="path5"
         transform="matrix(0.039,0,0,0.039,-3.6,-3.6)" />
      <path
         style="fill:#ff7f2a;stroke-width:95.9517"
         d="m 182.38554,651.46942 c -2.60225,-1.66638 -6.34097,-5.77638 -8.30828,-9.13335 l -3.57693,-6.10356 0.0635,-212.27601 c 0.0349,-116.7518 0.62347,-217.1144 1.30794,-223.028 1.21258,-10.47636 1.42394,-10.91053 8.24483,-16.93601 26.67411,-23.56359 55.26452,-34.78419 92.25051,-36.20467 39.52084,-1.51784 74.56387,6.59218 130.76508,30.263 70.9963,29.90221 76.59103,31.60101 107.18827,32.54697 20.44938,0.63222 23.69222,0.38854 33.23312,-2.49732 12.35578,-3.73729 26.87719,-10.76167 38.46594,-18.60699 12.39094,-8.38837 16.85967,-10.32364 23.83823,-10.32364 7.38836,0 14.4606,4.12223 19.24016,11.2146 2.79132,4.14206 3.24463,7.41007 4.19624,30.25209 0.58677,14.08462 0.77838,82.90468 0.4258,152.93346 l -0.64106,127.32505 -3.24656,5.25304 c -4.28031,6.9257 -19.18211,17.94297 -36.25112,26.80134 -29.31096,15.21165 -49.19114,19.76509 -80.97,18.54574 -33.41507,-1.28213 -53.01425,-6.86171 -111.25869,-31.67357 -66.02079,-28.12457 -78.55903,-32.14013 -105.51231,-33.79193 -20.98827,-1.28625 -34.76936,1.6059 -55.95728,11.74337 l -16.25533,7.77745 v 36.69785 c 0,20.18383 -0.43158,50.55582 -0.95907,67.49333 l -0.95906,30.79545 -4.31264,4.91182 c -2.37195,2.70151 -6.13447,5.85393 -8.36115,7.00539 -6.00491,3.10525 -17.01013,2.62671 -22.65009,-0.9849 z"
         id="path6"
         transform="matrix(0.039,0,0,0.039,-3.6,-3.6)" />
      <path
         style="fill:#ff7f2a;stroke-width:95.9517"
         d="m 182.38554,651.46942 c -2.60225,-1.66638 -6.34097,-5.77638 -8.30828,-9.13335 l -3.57693,-6.10356 0.0635,-212.27601 c 0.0349,-116.7518 0.62347,-217.1144 1.30794,-223.028 1.21258,-10.47636 1.42394,-10.91053 8.24483,-16.93601 26.7323,-23.61499 55.48255,-34.89517 92.32787,-36.2249 39.69703,-1.43265 74.57322,6.64893 130.68772,30.28323 70.9963,29.90221 76.59103,31.60101 107.18827,32.54697 20.44938,0.63222 23.69222,0.38854 33.23312,-2.49732 12.35578,-3.73729 26.87719,-10.76167 38.46594,-18.60699 12.39094,-8.38837 16.85967,-10.32364 23.83823,-10.32364 7.38836,0 14.4606,4.12223 19.24016,11.2146 2.79132,4.14206 3.24463,7.41007 4.19624,30.25209 0.58677,14.08462 0.77838,82.90468 0.4258,152.93346 l -0.64106,127.32505 -3.24656,5.25304 c -4.28031,6.9257 -19.18211,17.94297 -36.25112,26.80134 -29.31096,15.21165 -49.19114,19.76509 -80.97,18.54574 -33.41507,-1.28213 -53.01425,-6.86171 -111.25869,-31.67357 -66.02079,-28.12457 -78.55903,-32.14013 -105.51231,-33.79193 -20.98827,-1.28625 -34.76936,1.6059 -55.95728,11.74337 l -16.25533,7.77745 v 36.69785 c 0,20.18383 -0.43158,50.55582 -0.95907,67.49333 l -0.95906,30.79545 -4.31264,4.91182 c -2.37195,2.70151 -6.13447,5.85393 -8.36115,7.00539 -6.00491,3.10525 -17.01013,2.62671 -22.65009,-0.9849 z"
         id="path7"
         transform="matrix(0.039,0,0,0.039,-3.6,-3.6)" />
      <path
         style="fill:#ff7f2a;stroke-width:95.9517"
         d="m 182.38554,651.46942 c -2.60225,-1.66638 -6.34097,-5.77638 -8.30828,-9.13335 l -3.57693,-6.10356 0.0635,-212.27601 c 0.0349,-116.7518 0.62347,-217.1144 1.30794,-223.028 1.21258,-10.47636 1.42394,-10.91053 8.24483,-16.93601 26.7323,-23.61499 55.48255,-34.89517 92.32787,-36.2249 39.69703,-1.43265 74.57322,6.64893 130.68772,30.28323 70.9963,29.90221 76.59103,31.60101 107.18827,32.54697 20.44938,0.63222 23.69222,0.38854 33.23312,-2.49732 12.35578,-3.73729 26.87719,-10.76167 38.46594,-18.60699 12.39094,-8.38837 16.85967,-10.32364 23.83823,-10.32364 7.38836,0 14.4606,4.12223 19.24016,11.2146 2.79132,4.14206 3.24463,7.41007 4.19624,30.25209 0.58677,14.08462 0.77838,82.90468 0.4258,152.93346 l -0.64106,127.32505 -3.24656,5.25304 c -4.28031,6.9257 -19.18211,17.94297 -36.25112,26.80134 -29.31096,15.21165 -49.19114,19.76509 -80.97,18.54574 -33.41507,-1.28213 -53.01425,-6.86171 -111.25869,-31.67357 -66.02079,-28.12457 -78.55903,-32.14013 -105.51231,-33.79193 -20.98827,-1.28625 -34.76936,1.6059 -55.95728,11.74337 l -16.25533,7.77745 v 36.69785 c 0,20.18383 -0.43158,50.55582 -0.95907,67.49333 l -0.95906,30.79545 -4.31264,4.91182 c -2.37195,2.70151 -6.13447,5.85393 -8.36115,7.00539 -6.00491,3.10525 -17.01013,2.62671 -22.65009,-0.9849 z"
         id="path8"
         transform="matrix(0.039,0,0,0.039,-3.6,-3.6)" />
      <path
         style="fill:#ff7f2a;stroke-width:95.9517"
         d="m 182.38554,651.46942 c -2.60225,-1.66638 -6.34097,-5.77638 -8.30828,-9.13335 l -3.57693,-6.10356 0.0635,-212.27601 c 0.0349,-116.7518 0.62347,-217.1144 1.30794,-223.028 1.21258,-10.47636 1.42394,-10.91053 8.24483,-16.93601 26.7323,-23.61499 55.48255,-34.89517 92.32787,-36.2249 39.69703,-1.43265 74.57322,6.64893 130.68772,30.28323 70.9963,29.90221 76.59103,31.60101 107.18827,32.54697 20.44938,0.63222 23.69222,0.38854 33.23312,-2.49732 12.35578,-3.73729 26.87719,-10.76167 38.46594,-18.60699 12.39094,-8.38837 16.85967,-10.32364 23.83823,-10.32364 7.38836,0 14.4606,4.12223 19.24016,11.2146 2.79132,4.14206 3.24463,7.41007 4.19624,30.25209 0.58677,14.08462 0.77838,82.90468 0.4258,152.93346 l -0.64106,127.32505 -3.24656,5.25304 c -4.28031,6.9257 -19.18211,17.94297 -36.25112,26.80134 -29.31096,15.21165 -49.19114,19.76509 -80.97,18.54574 -33.41507,-1.28213 -53.01425,-6.86171 -111.25869,-31.67357 -66.02079,-28.12457 -78.55903,-32.14013 -105.51231,-33.79193 -20.98827,-1.28625 -34.76936,1.6059 -55.95728,11.74337 l -16.25533,7.77745 v 36.69785 c 0,20.18383 -0.43158,50.55582 -0.95907,67.49333 l -0.95906,30.79545 -4.31264,4.91182 c -2.37195,2.70151 -6.13447,5.85393 -8.36115,7.00539 -6.00491,3.10525 -17.01013,2.62671 -22.65009,-0.9849 z"
         id="path9"
         transform="matrix(0.039,0,0,0.039,-3.6,-3.6)" />
      <path
         style="fill:#ff7f2a;stroke-width:95.9517"
         d="m 182.38554,651.46942 c -2.60225,-1.66638 -6.34097,-5.77638 -8.30828,-9.13335 l -3.57693,-6.10356 0.0635,-212.27601 c 0.0349,-116.7518 0.62347,-217.1144 1.30794,-223.028 1.21258,-10.47636 1.42394,-10.91053 8.24483,-16.93601 26.67411,-23.56359 55.26452,-34.78419 92.25051,-36.20467 39.52084,-1.51784 74.56387,6.59218 130.76508,30.263 70.9963,29.90221 76.59103,31.60101 107.18827,32.54697 20.44938,0.63222 23.69222,0.38854 33.23312,-2.49732 12.35578,-3.73729 26.87719,-10.76167 38.46594,-18.60699 12.39094,-8.38837 16.85967,-10.32364 23.83823,-10.32364 7.38836,0 14.4606,4.12223 19.24016,11.2146 2.79132,4.14206 3.24463,7.41007 4.19624,30.25209 0.58677,14.08462 0.77838,82.90468 0.4258,152.93346 l -0.64106,127.32505 -3.24656,5.25304 c -4.28031,6.9257 -19.18211,17.94297 -36.25112,26.80134 -29.31096,15.21165 -49.19114,19.76509 -80.97,18.54574 -33.41507,-1.28213 -53.01425,-6.86171 -111.25869,-31.67357 -66.02079,-28.12457 -78.55903,-32.14013 -105.51231,-33.79193 -20.98827,-1.28625 -34.76936,1.6059 -55.95728,11.74337 l -16.25533,7.77745 v 36.69785 c 0,20.18383 -0.43158,50.55582 -0.95907,67.49333 l -0.95906,30.79545 -4.31264,4.91182 c -2.37195,2.70151 -6.13447,5.85393 -8.36115,7.00539 -6.00491,3.10525 -17.01013,2.62671 -22.65009,-0.9849 z"
         id="path10"
         transform="matrix(0.039,0,0,0.039,-3.6,-3.6)" />
      <path
         style="fill:#ff7f2a;stroke-width:95.9517"
         d="m 182.38554,651.46942 c -2.60225,-1.66638 -6.34097,-5.77638 -8.30828,-9.13335 l -3.57693,-6.10356 0.0635,-212.27601 c 0.0349,-116.7518 0.62347,-217.1144 1.30794,-223.028 1.21258,-10.47636 1.42394,-10.91053 8.24483,-16.93601 26.67411,-23.56359 55.26452,-34.78419 92.25051,-36.20467 39.52084,-1.51784 74.56387,6.59218 130.76508,30.263 70.9963,29.90221 76.59103,31.60101 107.18827,32.54697 20.44938,0.63222 23.69222,0.38854 33.23312,-2.49732 12.35578,-3.73729 26.87719,-10.76167 38.46594,-18.60699 12.39094,-8.38837 16.85967,-10.32364 23.83823,-10.32364 7.38836,0 14.4606,4.12223 19.24016,11.2146 2.79132,4.14206 3.24463,7.41007 4.19624,30.25209 0.58677,14.08462 0.77838,82.90468 0.4258,152.93346 l -0.64106,127.32505 -3.24656,5.25304 c -4.28031,6.9257 -19.18211,17.94297 -36.25112,26.80134 -29.31096,15.21165 -49.19114,19.76509 -80.97,18.54574 -33.41507,-1.28213 -53.01425,-6.86171 -111.25869,-31.67357 -66.02079,-28.12457 -78.55903,-32.14013 -105.51231,-33.79193 -20.98827,-1.28625 -34.76936,1.6059 -55.95728,11.74337 l -16.25533,7.77745 v 36.69785 c 0,20.18383 -0.43158,50.55582 -0.95907,67.49333 l -0.95906,30.79545 -4.31264,4.91182 c -2.37195,2.70151 -6.13447,5.85393 -8.36115,7.00539 -6.00491,3.10525 -17.01013,2.62671 -22.65009,-0.9849 z"
         id="path11"
         transform="matrix(0.039,0,0,0.039,-3.6,-3.6)" />
      <path
         style="fill:#ff7f2a;stroke-width:95.9517"
         d="m 182.38554,651.46942 c -2.60225,-1.66638 -6.34097,-5.77638 -8.30828,-9.13335 l -3.57693,-6.10356 0.0635,-212.27601 c 0.0349,-116.7518 0.62347,-217.1144 1.30794,-223.028 1.21258,-10.47636 1.42394,-10.91053 8.24483,-16.93601 26.67411,-23.56359 55.26452,-34.78419 92.25051,-36.20467 39.52084,-1.51784 74.56387,6.59218 130.76508,30.263 70.9963,29.90221 76.59103,31.60101 107.18827,32.54697 20.44938,0.63222 23.69222,0.38854 33.23312,-2.49732 12.35578,-3.73729 26.87719,-10.76167 38.46594,-18.60699 12.39094,-8.38837 16.85967,-10.32364 23.83823,-10.32364 7.38836,0 14.4606,4.12223 19.24016,11.2146 2.79132,4.14206 3.24463,7.41007 4.19624,30.25209 0.58677,14.08462 0.77838,82.90468 0.4258,152.93346 l -0.64106,127.32505 -3.24656,5.25304 c -4.28031,6.9257 -19.18211,17.94297 -36.25112,26.80134 -29.31096,15.21165 -49.19114,19.76509 -80.97,18.54574 -33.41507,-1.28213 -53.01425,-6.86171 -111.25869,-31.67357 -66.02079,-28.12457 -78.55903,-32.14013 -105.51231,-33.79193 -20.98827,-1.28625 -34.76936,1.6059 -55.95728,11.74337 l -16.25533,7.77745 v 36.69785 c 0,20.18383 -0.43158,50.55582 -0.95907,67.49333 l -0.95906,30.79545 -4.31264,4.91182 c -2.37195,2.70151 -6.13447,5.85393 -8.36115,7.00539 -6.00491,3.10525 -17.01013,2.62671 -22.65009,-0.9849 z"
         id="path12"
         transform="matrix(0.039,0,0,0.039,-3.6,-3.6)" />
      <path
         style="fill:#ff7f2a;stroke-width:95.9517"
         d="m 182.38554,651.46942 c -2.60225,-1.66638 -6.34097,-5.77638 -8.30828,-9.13335 l -3.57693,-6.10356 0.0635,-212.27601 c 0.0349,-116.7518 0.62347,-217.1144 1.30794,-223.028 1.21258,-10.47636 1.42394,-10.91053 8.24483,-16.93601 26.67411,-23.56359 55.26452,-34.78419 92.25051,-36.20467 39.52084,-1.51784 74.56387,6.59218 130.76508,30.263 70.9963,29.90221 76.59103,31.60101 107.18827,32.54697 20.44938,0.63222 23.69222,0.38854 33.23312,-2.49732 12.35578,-3.73729 26.87719,-10.76167 38.46594,-18.60699 12.39094,-8.38837 16.85967,-10.32364 23.83823,-10.32364 7.38836,0 14.4606,4.12223 19.24016,11.2146 2.79132,4.14206 3.24463,7.41007 4.19624,30.25209 0.58677,14.08462 0.77838,82.90468 0.4258,152.93346 l -0.64106,127.32505 -3.24656,5.25304 c -4.28031,6.9257 -19.18211,17.94297 -36.25112,26.80134 -29.31096,15.21165 -49.19114,19.76509 -80.97,18.54574 -33.41507,-1.28213 -53.01425,-6.86171 -111.25869,-31.67357 -66.02079,-28.12457 -78.55903,-32.14013 -105.51231,-33.79193 -20.98827,-1.28625 -34.76936,1.6059 -55.95728,11.74337 l -16.25533,7.77745 v 36.69785 c 0,20.18383 -0.43158,50.55582 -0.95907,67.49333 l -0.95906,30.79545 -4.31264,4.91182 c -2.37195,2.70151 -6.13447,5.85393 -8.36115,7.00539 -6.00491,3.10525 -17.01013,2.62671 -22.65009,-0.9849 z"
         id="path13"
         transform="matrix(0.039,0,0,0.039,-3.6,-3.6)" />
    </g>
  </g>
</svg>
